<!DOCTYPE svg PUBLIC "-//W3C//DTD SVG 1.1//EN" "http://www.w3.org/Graphics/SVG/1.1/DTD/svg11.dtd">

<!-- Uploaded to: SVG Repo, www.svgrepo.com, Transformed by: SVG Repo Mixer Tools -->
<svg version="1.1" id="Layer_1" xmlns="http://www.w3.org/2000/svg" xmlns:xlink="http://www.w3.org/1999/xlink" viewBox="0 0 512 512" xml:space="preserve" width="20px" height="20px" fill="#000000">

<g id="SVGRepo_bgCarrier" stroke-width="0"/>

<g id="SVGRepo_tracerCarrier" stroke-linecap="round" stroke-linejoin="round"/>

<g id="SVGRepo_iconCarrier"> <rect x="10.199" y="10.199" style="fill:#1FCFC1;" width="491.602" height="491.602"/> <g> <polygon style="fill:#000000;" points="451.453,60.547 278.217,60.547 330.351,112.681 251.92,191.112 320.888,260.08 399.319,181.649 451.453,233.783 "/> <polygon style="fill:#000000;" points="64.255,447.745 237.492,447.745 185.357,395.611 263.773,317.195 194.805,248.227 116.389,326.643 64.255,274.509 "/> </g> <g> <path style="fill:#ffffff;" d="M501.801,512H10.199C4.566,512,0,507.434,0,501.801V10.199C0,4.566,4.566,0,10.199,0h491.602 C507.434,0,512,4.566,512,10.199v491.602C512,507.434,507.434,512,501.801,512z M20.398,491.602h471.203V20.398H20.398V491.602z"/> <path style="fill:#ffffff;" d="M320.888,270.279c-2.705,0-5.3-1.075-7.212-2.987l-68.968-68.968 c-1.912-1.912-2.987-4.507-2.987-7.212s1.075-5.299,2.987-7.212l71.219-71.218l-44.922-44.922 c-2.917-2.917-3.79-7.304-2.211-11.115c1.579-3.811,5.297-6.296,9.423-6.296h173.237c5.633,0,10.199,4.566,10.199,10.199v173.237 c0,4.125-2.486,7.844-6.296,9.423c-3.812,1.578-8.198,0.706-11.115-2.211l-44.922-44.922l-71.218,71.219 C326.188,269.204,323.593,270.279,320.888,270.279z M266.344,191.112l54.544,54.544l71.218-71.219 c1.912-1.912,4.507-2.987,7.212-2.987s5.3,1.075,7.212,2.987l34.723,34.723V70.746H302.84l34.723,34.723 c1.912,1.912,2.987,4.507,2.987,7.212c0,2.705-1.075,5.3-2.987,7.212L266.344,191.112z"/> <path style="fill:#ffffff;" d="M237.493,457.944H64.255c-5.633,0-10.199-4.566-10.199-10.199V274.507 c0-4.125,2.486-7.844,6.296-9.423c3.81-1.58,8.198-0.706,11.115,2.21l44.922,44.922l71.204-71.204 c3.983-3.982,10.441-3.982,14.425,0l68.968,68.968c3.983,3.983,3.983,10.441,0,14.425l-71.204,71.204l44.922,44.922 c2.917,2.917,3.789,7.305,2.21,11.115C245.336,455.459,241.617,457.944,237.493,457.944z M74.454,437.546h138.414l-34.723-34.723 c-3.983-3.983-3.983-10.441,0-14.425l71.204-71.203l-54.544-54.544l-71.204,71.204c-3.983,3.983-10.441,3.983-14.425,0 l-34.722-34.723V437.546z"/> <path style="fill:#ffffff;" d="M64.255,171.347c-5.633,0-10.199-4.566-10.199-10.199v-54.056c0-5.633,4.566-10.199,10.199-10.199 s10.199,4.566,10.199,10.199v54.056C74.454,166.78,69.888,171.347,64.255,171.347z"/> <path style="fill:#ffffff;" d="M64.255,81.594c-5.633,0-10.199-4.566-10.199-10.199v-4.316c0-5.633,4.566-10.199,10.199-10.199 s10.199,4.566,10.199,10.199v4.316C74.454,77.026,69.888,81.594,64.255,81.594z"/> </g> </g>

</svg>