<!DOCTYPE svg PUBLIC "-//W3C//DTD SVG 1.1//EN" "http://www.w3.org/Graphics/SVG/1.1/DTD/svg11.dtd">
<!-- Uploaded to: SVG Repo, www.svgrepo.com, Transformed by: SVG Repo Mixer Tools -->
<svg version="1.1" id="Capa_1" xmlns="http://www.w3.org/2000/svg" xmlns:xlink="http://www.w3.org/1999/xlink" viewBox="0 0 60 60" xml:space="preserve" width="256px" height="256px" fill="#000000">
<g id="SVGRepo_bgCarrier" stroke-width="0"/>
<g id="SVGRepo_tracerCarrier" stroke-linecap="round" stroke-linejoin="round"/>
<g id="SVGRepo_iconCarrier"> <g> <path style="fill:#353846;" d="M4,54c-0.553,0-1-0.447-1-1v-1c0-0.553,0.447-1,1-1s1,0.447,1,1v1C5,53.553,4.553,54,4,54z M4,49 c-0.553,0-1-0.447-1-1v-1c0-0.553,0.447-1,1-1s1,0.447,1,1v1C5,48.553,4.553,49,4,49z M4,44c-0.553,0-1-0.447-1-1v-1 c0-0.553,0.447-1,1-1s1,0.447,1,1v1C5,43.553,4.553,44,4,44z M4,39c-0.553,0-1-0.447-1-1v-1c0-0.553,0.447-1,1-1s1,0.447,1,1v1 C5,38.553,4.553,39,4,39z M4,34c-0.553,0-1-0.447-1-1v-1c0-0.553,0.447-1,1-1s1,0.447,1,1v1C5,33.553,4.553,34,4,34z M4,29 c-0.553,0-1-0.447-1-1v-1c0-0.553,0.447-1,1-1s1,0.447,1,1v1C5,28.553,4.553,29,4,29z M4,24c-0.553,0-1-0.447-1-1v-1 c0-0.553,0.447-1,1-1s1,0.447,1,1v1C5,23.553,4.553,24,4,24z M4,19c-0.553,0-1-0.447-1-1v-1c0-0.553,0.447-1,1-1s1,0.447,1,1v1 C5,18.553,4.553,19,4,19z M4,14c-0.553,0-1-0.447-1-1v-1c0-0.553,0.447-1,1-1s1,0.447,1,1v1C5,13.553,4.553,14,4,14z M4,9 C3.447,9,3,8.553,3,8V7c0-0.553,0.447-1,1-1s1,0.447,1,1v1C5,8.553,4.553,9,4,9z"/> <path style="fill:#353846;" d="M53,5h-1c-0.553,0-1-0.447-1-1s0.447-1,1-1h1c0.553,0,1,0.447,1,1S53.553,5,53,5z M48,5h-1 c-0.553,0-1-0.447-1-1s0.447-1,1-1h1c0.553,0,1,0.447,1,1S48.553,5,48,5z M43,5h-1c-0.553,0-1-0.447-1-1s0.447-1,1-1h1 c0.553,0,1,0.447,1,1S43.553,5,43,5z M38,5h-1c-0.553,0-1-0.447-1-1s0.447-1,1-1h1c0.553,0,1,0.447,1,1S38.553,5,38,5z M33,5h-1 c-0.553,0-1-0.447-1-1s0.447-1,1-1h1c0.553,0,1,0.447,1,1S33.553,5,33,5z M28,5h-1c-0.553,0-1-0.447-1-1s0.447-1,1-1h1 c0.553,0,1,0.447,1,1S28.553,5,28,5z M23,5h-1c-0.553,0-1-0.447-1-1s0.447-1,1-1h1c0.553,0,1,0.447,1,1S23.553,5,23,5z M18,5h-1 c-0.553,0-1-0.447-1-1s0.447-1,1-1h1c0.553,0,1,0.447,1,1S18.553,5,18,5z M13,5h-1c-0.553,0-1-0.447-1-1s0.447-1,1-1h1 c0.553,0,1,0.447,1,1S13.553,5,13,5z M8,5H7C6.447,5,6,4.553,6,4s0.447-1,1-1h1c0.553,0,1,0.447,1,1S8.553,5,8,5z"/> <path style="fill:#353846;" d="M56,54c-0.553,0-1-0.447-1-1v-1c0-0.553,0.447-1,1-1s1,0.447,1,1v1C57,53.553,56.553,54,56,54z M56,49c-0.553,0-1-0.447-1-1v-1c0-0.553,0.447-1,1-1s1,0.447,1,1v1C57,48.553,56.553,49,56,49z M56,44c-0.553,0-1-0.447-1-1v-1 c0-0.553,0.447-1,1-1s1,0.447,1,1v1C57,43.553,56.553,44,56,44z M56,39c-0.553,0-1-0.447-1-1v-1c0-0.553,0.447-1,1-1s1,0.447,1,1v1 C57,38.553,56.553,39,56,39z M56,34c-0.553,0-1-0.447-1-1v-1c0-0.553,0.447-1,1-1s1,0.447,1,1v1C57,33.553,56.553,34,56,34z M56,29 c-0.553,0-1-0.447-1-1v-1c0-0.553,0.447-1,1-1s1,0.447,1,1v1C57,28.553,56.553,29,56,29z M56,24c-0.553,0-1-0.447-1-1v-1 c0-0.553,0.447-1,1-1s1,0.447,1,1v1C57,23.553,56.553,24,56,24z M56,19c-0.553,0-1-0.447-1-1v-1c0-0.553,0.447-1,1-1s1,0.447,1,1v1 C57,18.553,56.553,19,56,19z M56,14c-0.553,0-1-0.447-1-1v-1c0-0.553,0.447-1,1-1s1,0.447,1,1v1C57,13.553,56.553,14,56,14z M56,9 c-0.553,0-1-0.447-1-1V7c0-0.553,0.447-1,1-1s1,0.447,1,1v1C57,8.553,56.553,9,56,9z"/> <g> <polygon style="fill:#a1a1a1;" points="44,30 38,30 38,27 22,27 22,30 16,30 7,53 7,56 53,56 53,53 "/> <path style="fill:#353846;" d="M54,57H6v-4.188l0.068-0.176L15.317,29H21v-3h18v3h5.683L54,52.812V57z M8,55h44v-1.812L43.317,31 H37v-3H23v3h-6.317L8,53.188V55z"/> </g> <g> <rect x="1" y="1" style="fill:#4a5e73;" width="6" height="6"/> <path style="fill:#4a5e73;" d="M8,8H0V0h8V8z M2,6h4V2H2V6z"/> </g> <g> <rect x="53" y="1" style="fill:#4a5e73;" width="6" height="6"/> <path style="fill:#4a5e73;" d="M60,8h-8V0h8V8z M54,6h4V2h-4V6z"/> </g> <g> <rect x="1" y="53" style="fill:#4a5e73;" width="6" height="6"/> <path style="fill:#4a5e73;" d="M8,60H0v-8h8V60z M2,58h4v-4H2V58z"/> </g> <g> <rect x="53" y="53" style="fill:#4a5e73;" width="6" height="6"/> <path style="fill:#4a5e73;" d="M60,60h-8v-8h8V60z M54,58h4v-4h-4V58z"/> </g> <g> <rect x="16" y="24" style="fill:#4a5e73;" width="6" height="6"/> <path style="fill:#4a5e73;" d="M23,31h-8v-8h8V31z M17,29h4v-4h-4V29z"/> </g> <g> <rect x="38" y="24" style="fill:#4a5e73;" width="6" height="6"/> <path style="fill:#4a5e73;" d="M45,31h-8v-8h8V31z M39,29h4v-4h-4V29z"/> </g> </g> </g>
</svg>