<!DOCTYPE svg PUBLIC "-//W3C//DTD SVG 1.1//EN" "http://www.w3.org/Graphics/SVG/1.1/DTD/svg11.dtd">
<!-- Uploaded to: SVG Repo, www.svgrepo.com, Transformed by: SVG Repo Mixer Tools -->
<svg height="256px" width="256px" version="1.1" id="Capa_1" xmlns="http://www.w3.org/2000/svg" xmlns:xlink="http://www.w3.org/1999/xlink" viewBox="0 0 60 60" xml:space="preserve" fill="#000000">
<g id="SVGRepo_bgCarrier" stroke-width="0"/>
<g id="SVGRepo_tracerCarrier" stroke-linecap="round" stroke-linejoin="round"/>
<g id="SVGRepo_iconCarrier"> <g> <path style="fill:#ffffff;" d="M30,36.5c-0.553,0-1-0.448-1-1v-19c0-0.552,0.447-1,1-1s1,0.448,1,1v19 C31,36.052,30.553,36.5,30,36.5z"/> <path style="fill:#ffffff;" d="M48.999,49.5c-0.194,0-0.391-0.057-0.563-0.175l-18.42-12.603l-17.43,12.588 c-0.45,0.323-1.074,0.222-1.396-0.225c-0.323-0.448-0.223-1.073,0.225-1.396l18.57-13.412l19.58,13.397 c0.456,0.312,0.572,0.934,0.261,1.39C49.632,49.348,49.318,49.5,48.999,49.5z"/> <path style="fill:#DC691D;" d="M30,9.5c-0.256,0-0.512-0.098-0.707-0.293l-3-3c-0.391-0.391-0.391-1.023,0-1.414 s1.023-0.391,1.414,0l3,3c0.391,0.391,0.391,1.023,0,1.414C30.512,9.402,30.256,9.5,30,9.5z"/> <path style="fill:#DC691D;" d="M30,9.5c-0.256,0-0.512-0.098-0.707-0.293c-0.391-0.391-0.391-1.023,0-1.414l3-3 c0.391-0.391,1.023-0.391,1.414,0s0.391,1.023,0,1.414l-3,3C30.512,9.402,30.256,9.5,30,9.5z"/> <path style="fill:#DC691D;" d="M30,12.5c-0.553,0-1-0.448-1-1v-3c0-0.552,0.447-1,1-1s1,0.448,1,1v3C31,12.052,30.553,12.5,30,12.5 z"/> <path style="fill:#26B99A;" d="M59,55.5c-0.256,0-0.512-0.098-0.707-0.293l-6-6c-0.391-0.391-0.391-1.023,0-1.414 s1.023-0.391,1.414,0l6,6c0.391,0.391,0.391,1.023,0,1.414C59.512,55.402,59.256,55.5,59,55.5z"/> <path style="fill:#26B99A;" d="M53,55.5c-0.256,0-0.512-0.098-0.707-0.293c-0.391-0.391-0.391-1.023,0-1.414l6-6 c0.391-0.391,1.023-0.391,1.414,0s0.391,1.023,0,1.414l-6,6C53.512,55.402,53.256,55.5,53,55.5z"/> <path style="fill:#1081E0;" d="M7,49.5H1c-0.553,0-1-0.448-1-1s0.447-1,1-1h6c0.553,0,1,0.448,1,1S7.553,49.5,7,49.5z"/> <path style="fill:#1081E0;" d="M1,55.5c-0.256,0-0.512-0.098-0.707-0.293c-0.391-0.391-0.391-1.023,0-1.414l6-6 c0.391-0.391,1.023-0.391,1.414,0s0.391,1.023,0,1.414l-6,6C1.512,55.402,1.256,55.5,1,55.5z"/> <path style="fill:#1081E0;" d="M7,55.5H1c-0.553,0-1-0.448-1-1s0.447-1,1-1h6c0.553,0,1,0.448,1,1S7.553,55.5,7,55.5z"/> </g> </g>
</svg>