<?xml version="1.0" encoding="iso-8859-1"?>
<!-- Uploaded to: SVG Repo, www.svgrepo.com, Generator: SVG Repo Mixer Tools -->
<svg height="800px" width="800px" version="1.1" id="Layer_1" xmlns="http://www.w3.org/2000/svg" xmlns:xlink="http://www.w3.org/1999/xlink" 
	 viewBox="0 0 512 512" xml:space="preserve">
<g transform="translate(1)">
	<g>
		<path style="fill:#B0B6BB;" d="M468.333,145.067c-1.707,0-3.413-0.853-5.12-1.707l-34.133-25.6
			c-3.413-2.56-4.267-8.533-1.707-11.947s8.533-4.267,11.947-1.707l34.133,25.6c3.413,2.56,4.267,8.533,1.707,11.947
			C473.453,144.213,470.893,145.067,468.333,145.067z"/>
		<path style="fill:#B0B6BB;" d="M468.333,145.067c-1.707,0-2.56,0-3.413-0.853c-3.413-1.707-5.12-4.267-5.12-7.68v-17.067
			c0-56.32-46.08-102.4-102.4-102.4c-5.12,0-8.533-3.413-8.533-8.533S352.28,0,357.4,0c65.707,0,119.467,53.76,119.467,119.467
			l20.48-15.36c3.413-2.56,9.387-1.707,11.947,1.707c2.56,3.413,1.707,9.387-1.707,11.947l-34.133,25.6
			C471.747,144.213,470.04,145.067,468.333,145.067z"/>
		<path style="fill:#B0B6BB;" d="M84.333,409.6c-1.707,0-3.413-0.853-5.12-1.707l-34.133-25.6c-3.413-2.56-4.267-8.533-1.707-11.947
			c2.56-3.413,8.533-4.267,11.947-1.707l34.133,25.6c3.413,2.56,4.267,8.533,1.707,11.947C89.453,408.747,86.893,409.6,84.333,409.6
			z"/>
		<path style="fill:#B0B6BB;" d="M161.133,512c-65.707,0-119.467-53.76-119.467-119.467l-20.48,15.36
			c-3.413,2.56-9.387,1.707-11.947-1.707s-1.707-9.387,1.707-11.947l34.133-25.6c2.56-1.707,5.973-2.56,8.533-0.853
			c3.413,1.707,5.12,4.267,5.12,7.68v17.067c0,56.32,46.08,102.4,102.4,102.4c5.12,0,8.533,3.413,8.533,8.533
			C169.667,508.587,166.253,512,161.133,512z"/>
	</g>
	<path style="fill:#556080;" d="M121.88,162.133c0-5.12,3.413-8.533,8.533-8.533l0,0c4.267,0,8.533,3.413,8.533,8.533l0,0
		c0,4.267-4.267,8.533-8.533,8.533l0,0C125.293,170.667,121.88,166.4,121.88,162.133z M91.16,162.133
		c0-5.12,4.267-8.533,8.533-8.533l0,0c4.267,0,8.533,3.413,8.533,8.533l0,0c0,4.267-4.267,8.533-8.533,8.533l0,0
		C94.573,170.667,91.16,166.4,91.16,162.133z M60.44,162.133c0-5.12,4.267-8.533,8.533-8.533l0,0c5.12,0,8.533,3.413,8.533,8.533
		l0,0c0,4.267-3.413,8.533-8.533,8.533l0,0C63.853,170.667,60.44,166.4,60.44,162.133z M29.72,162.133
		c0-5.12,4.267-8.533,8.533-8.533l0,0c5.12,0,8.533,3.413,8.533,8.533l0,0c0,4.267-3.413,8.533-8.533,8.533l0,0
		C33.133,170.667,29.72,166.4,29.72,162.133z"/>
	<path style="fill:#556080;" d="M-1,318.293c0-4.267,3.413-8.533,8.533-8.533l0,0c4.267,0,8.533,4.267,8.533,8.533l0,0
		c0,5.12-4.267,8.533-8.533,8.533l0,0C2.413,326.827-1,323.413-1,318.293z M-1,287.573c0-5.12,3.413-8.533,8.533-8.533l0,0
		c4.267,0,8.533,3.413,8.533,8.533l0,0c0,4.267-4.267,8.533-8.533,8.533l0,0C2.413,296.107-1,291.84-1,287.573z M-1,256
		c0-5.12,3.413-8.533,8.533-8.533l0,0c4.267,0,8.533,3.413,8.533,8.533l0,0c0,4.267-4.267,8.533-8.533,8.533l0,0
		C2.413,264.533-1,260.267-1,256z M-1,224.427c0-4.267,3.413-8.533,8.533-8.533l0,0c4.267,0,8.533,4.267,8.533,8.533l0,0
		c0,5.12-4.267,8.533-8.533,8.533l0,0C2.413,232.96-1,229.547-1,224.427z M-1,193.707c0-5.12,3.413-8.533,8.533-8.533l0,0
		c4.267,0,8.533,3.413,8.533,8.533l0,0c0,4.267-4.267,8.533-8.533,8.533l0,0C2.413,202.24-1,197.973-1,193.707z"/>
	<path style="fill:#556080;" d="M121.88,349.867c0-4.267,3.413-8.533,8.533-8.533l0,0c4.267,0,8.533,4.267,8.533,8.533l0,0
		c0,4.267-4.267,8.533-8.533,8.533l0,0C125.293,358.4,121.88,354.133,121.88,349.867z M91.16,349.867
		c0-4.267,4.267-8.533,8.533-8.533l0,0c4.267,0,8.533,4.267,8.533,8.533l0,0c0,4.267-4.267,8.533-8.533,8.533l0,0
		C94.573,358.4,91.16,354.133,91.16,349.867z M60.44,349.867c0-4.267,4.267-8.533,8.533-8.533l0,0c5.12,0,8.533,4.267,8.533,8.533
		l0,0c0,4.267-3.413,8.533-8.533,8.533l0,0C63.853,358.4,60.44,354.133,60.44,349.867z M29.72,349.867
		c0-4.267,4.267-8.533,8.533-8.533l0,0c5.12,0,8.533,4.267,8.533,8.533l0,0c0,4.267-3.413,8.533-8.533,8.533l0,0
		C33.133,358.4,29.72,354.133,29.72,349.867z"/>
	<path style="fill:#556080;" d="M152.6,318.293c0-4.267,3.413-8.533,8.533-8.533l0,0c4.267,0,8.533,4.267,8.533,8.533l0,0
		c0,4.267-4.267,8.533-8.533,8.533l0,0C156.013,326.827,152.6,323.413,152.6,318.293z M152.6,287.573
		c0-5.12,3.413-8.533,8.533-8.533l0,0c4.267,0,8.533,3.413,8.533,8.533l0,0c0,4.267-4.267,8.533-8.533,8.533l0,0
		C156.013,296.107,152.6,291.84,152.6,287.573z M152.6,256c0-5.12,3.413-8.533,8.533-8.533l0,0c4.267,0,8.533,3.413,8.533,8.533l0,0
		c0,4.267-4.267,8.533-8.533,8.533l0,0C156.013,264.533,152.6,260.267,152.6,256z M152.6,224.427c0-4.267,3.413-8.533,8.533-8.533
		l0,0c4.267,0,8.533,4.267,8.533,8.533l0,0c0,5.12-4.267,8.533-8.533,8.533l0,0C156.013,232.96,152.6,229.547,152.6,224.427z
		 M152.6,193.707c0-4.267,3.413-8.533,8.533-8.533l0,0c4.267,0,8.533,4.267,8.533,8.533l0,0c0,5.12-4.267,8.533-8.533,8.533l0,0
		C156.013,202.24,152.6,197.973,152.6,193.707z"/>
	<path style="fill:#556080;" d="M348.867,318.293c0-4.267,4.267-8.533,8.533-8.533l0,0c4.267,0,8.533,4.267,8.533,8.533l0,0
		c0,5.12-4.267,8.533-8.533,8.533l0,0C353.133,326.827,348.867,323.413,348.867,318.293z M348.867,287.573
		c0-5.12,4.267-8.533,8.533-8.533l0,0c4.267,0,8.533,3.413,8.533,8.533l0,0c0,4.267-4.267,8.533-8.533,8.533l0,0
		C353.133,296.107,348.867,291.84,348.867,287.573z M348.867,256c0-5.12,4.267-8.533,8.533-8.533l0,0
		c4.267,0,8.533,3.413,8.533,8.533l0,0c0,4.267-4.267,8.533-8.533,8.533l0,0C353.133,264.533,348.867,260.267,348.867,256z
		 M348.867,224.427c0-4.267,4.267-8.533,8.533-8.533l0,0c4.267,0,8.533,4.267,8.533,8.533l0,0c0,5.12-4.267,8.533-8.533,8.533l0,0
		C353.133,232.96,348.867,229.547,348.867,224.427z M348.867,193.707c0-5.12,4.267-8.533,8.533-8.533l0,0
		c4.267,0,8.533,3.413,8.533,8.533l0,0c0,4.267-4.267,8.533-8.533,8.533l0,0C353.133,202.24,348.867,197.973,348.867,193.707z"/>
	<path style="fill:#556080;" d="M458.093,349.867c0-4.267,4.267-8.533,8.533-8.533l0,0c4.267,0,8.533,4.267,8.533,8.533l0,0
		c0,4.267-4.267,8.533-8.533,8.533l0,0C461.507,358.4,458.093,354.133,458.093,349.867z M421.4,349.867
		c0-4.267,4.267-8.533,8.533-8.533l0,0c4.267,0,8.533,4.267,8.533,8.533l0,0c0,4.267-4.267,8.533-8.533,8.533l0,0
		C425.667,358.4,421.4,354.133,421.4,349.867z M384.707,349.867c0-4.267,4.267-8.533,8.533-8.533l0,0
		c4.267,0,8.533,4.267,8.533,8.533l0,0c0,4.267-4.267,8.533-8.533,8.533l0,0C388.973,358.4,384.707,354.133,384.707,349.867z"/>
	<path style="fill:#556080;" d="M493.933,318.293c0-4.267,4.267-8.533,8.533-8.533l0,0c4.267,0,8.533,4.267,8.533,8.533l0,0
		c0,4.267-4.267,8.533-8.533,8.533l0,0C498.2,326.827,493.933,323.413,493.933,318.293z M493.933,287.573
		c0-5.12,4.267-8.533,8.533-8.533l0,0c4.267,0,8.533,3.413,8.533,8.533l0,0c0,5.12-4.267,8.533-8.533,8.533l0,0
		C498.2,296.107,493.933,291.84,493.933,287.573z M493.933,256c0-5.12,4.267-8.533,8.533-8.533l0,0c4.267,0,8.533,3.413,8.533,8.533
		l0,0c0,4.267-4.267,8.533-8.533,8.533l0,0C498.2,264.533,493.933,260.267,493.933,256z M493.933,224.427
		c0-4.267,4.267-8.533,8.533-8.533l0,0c4.267,0,8.533,4.267,8.533,8.533l0,0c0,5.12-4.267,8.533-8.533,8.533l0,0
		C498.2,232.96,493.933,229.547,493.933,224.427z M493.933,193.707c0-4.267,4.267-8.533,8.533-8.533l0,0
		c4.267,0,8.533,4.267,8.533,8.533l0,0c0,5.12-4.267,8.533-8.533,8.533l0,0C498.2,202.24,493.933,197.973,493.933,193.707z"/>
	<path style="fill:#556080;" d="M458.093,162.133c0-5.12,4.267-8.533,8.533-8.533l0,0c4.267,0,8.533,3.413,8.533,8.533l0,0
		c0,4.267-4.267,8.533-8.533,8.533l0,0C461.507,170.667,458.093,166.4,458.093,162.133z M421.4,162.133
		c0-5.12,4.267-8.533,8.533-8.533l0,0c4.267,0,8.533,3.413,8.533,8.533l0,0c0,4.267-4.267,8.533-8.533,8.533l0,0
		C425.667,170.667,421.4,166.4,421.4,162.133z M384.707,162.133c0-5.12,4.267-8.533,8.533-8.533l0,0
		c4.267,0,8.533,3.413,8.533,8.533l0,0c0,4.267-4.267,8.533-8.533,8.533l0,0C388.973,170.667,384.707,166.4,384.707,162.133z"/>
	<g>
		<polygon style="fill:#48A0DC;" points="161.133,503.467 357.4,503.467 357.4,8.533 161.133,8.533 		"/>
		<path style="fill:#48A0DC;" d="M365.933,512H152.6V0h213.333V512z M169.667,494.933h179.2V17.067h-179.2V494.933z"/>
	</g>
	<path d="M365.933,512H152.6V0h213.333V512z M169.667,494.933h179.2V17.067h-179.2V494.933z"/>
	<path d="M121.88,162.133c0-5.12,3.413-8.533,8.533-8.533l0,0c4.267,0,8.533,3.413,8.533,8.533l0,0c0,4.267-4.267,8.533-8.533,8.533
		l0,0C125.293,170.667,121.88,166.4,121.88,162.133z M91.16,162.133c0-5.12,4.267-8.533,8.533-8.533l0,0
		c4.267,0,8.533,3.413,8.533,8.533l0,0c0,4.267-4.267,8.533-8.533,8.533l0,0C94.573,170.667,91.16,166.4,91.16,162.133z
		 M60.44,162.133c0-5.12,4.267-8.533,8.533-8.533l0,0c5.12,0,8.533,3.413,8.533,8.533l0,0c0,4.267-3.413,8.533-8.533,8.533l0,0
		C63.853,170.667,60.44,166.4,60.44,162.133z M29.72,162.133c0-5.12,4.267-8.533,8.533-8.533l0,0c5.12,0,8.533,3.413,8.533,8.533
		l0,0c0,4.267-3.413,8.533-8.533,8.533l0,0C33.133,170.667,29.72,166.4,29.72,162.133z"/>
	<path d="M-1,318.293c0-4.267,3.413-8.533,8.533-8.533l0,0c4.267,0,8.533,4.267,8.533,8.533l0,0c0,5.12-4.267,8.533-8.533,8.533l0,0
		C2.413,326.827-1,323.413-1,318.293z M-1,287.573c0-5.12,3.413-8.533,8.533-8.533l0,0c4.267,0,8.533,3.413,8.533,8.533l0,0
		c0,4.267-4.267,8.533-8.533,8.533l0,0C2.413,296.107-1,291.84-1,287.573z M-1,256c0-5.12,3.413-8.533,8.533-8.533l0,0
		c4.267,0,8.533,3.413,8.533,8.533l0,0c0,4.267-4.267,8.533-8.533,8.533l0,0C2.413,264.533-1,260.267-1,256z M-1,224.427
		c0-4.267,3.413-8.533,8.533-8.533l0,0c4.267,0,8.533,4.267,8.533,8.533l0,0c0,5.12-4.267,8.533-8.533,8.533l0,0
		C2.413,232.96-1,229.547-1,224.427z M-1,193.707c0-5.12,3.413-8.533,8.533-8.533l0,0c4.267,0,8.533,3.413,8.533,8.533l0,0
		c0,4.267-4.267,8.533-8.533,8.533l0,0C2.413,202.24-1,197.973-1,193.707z"/>
	<path d="M121.88,349.867c0-4.267,3.413-8.533,8.533-8.533l0,0c4.267,0,8.533,4.267,8.533,8.533l0,0
		c0,4.267-4.267,8.533-8.533,8.533l0,0C125.293,358.4,121.88,354.133,121.88,349.867z M91.16,349.867
		c0-4.267,4.267-8.533,8.533-8.533l0,0c4.267,0,8.533,4.267,8.533,8.533l0,0c0,4.267-4.267,8.533-8.533,8.533l0,0
		C94.573,358.4,91.16,354.133,91.16,349.867z M60.44,349.867c0-4.267,4.267-8.533,8.533-8.533l0,0c5.12,0,8.533,4.267,8.533,8.533
		l0,0c0,4.267-3.413,8.533-8.533,8.533l0,0C63.853,358.4,60.44,354.133,60.44,349.867z M29.72,349.867
		c0-4.267,4.267-8.533,8.533-8.533l0,0c5.12,0,8.533,4.267,8.533,8.533l0,0c0,4.267-3.413,8.533-8.533,8.533l0,0
		C33.133,358.4,29.72,354.133,29.72,349.867z"/>
	<path d="M152.6,318.293c0-4.267,3.413-8.533,8.533-8.533l0,0c4.267,0,8.533,4.267,8.533,8.533l0,0c0,4.267-4.267,8.533-8.533,8.533
		l0,0C156.013,326.827,152.6,323.413,152.6,318.293z M152.6,287.573c0-5.12,3.413-8.533,8.533-8.533l0,0
		c4.267,0,8.533,3.413,8.533,8.533l0,0c0,4.267-4.267,8.533-8.533,8.533l0,0C156.013,296.107,152.6,291.84,152.6,287.573z
		 M152.6,256c0-5.12,3.413-8.533,8.533-8.533l0,0c4.267,0,8.533,3.413,8.533,8.533l0,0c0,4.267-4.267,8.533-8.533,8.533l0,0
		C156.013,264.533,152.6,260.267,152.6,256z M152.6,224.427c0-4.267,3.413-8.533,8.533-8.533l0,0c4.267,0,8.533,4.267,8.533,8.533
		l0,0c0,5.12-4.267,8.533-8.533,8.533l0,0C156.013,232.96,152.6,229.547,152.6,224.427z M152.6,193.707
		c0-4.267,3.413-8.533,8.533-8.533l0,0c4.267,0,8.533,4.267,8.533,8.533l0,0c0,5.12-4.267,8.533-8.533,8.533l0,0
		C156.013,202.24,152.6,197.973,152.6,193.707z"/>
	<path d="M348.867,318.293c0-4.267,4.267-8.533,8.533-8.533l0,0c4.267,0,8.533,4.267,8.533,8.533l0,0
		c0,5.12-4.267,8.533-8.533,8.533l0,0C353.133,326.827,348.867,323.413,348.867,318.293z M348.867,287.573
		c0-5.12,4.267-8.533,8.533-8.533l0,0c4.267,0,8.533,3.413,8.533,8.533l0,0c0,4.267-4.267,8.533-8.533,8.533l0,0
		C353.133,296.107,348.867,291.84,348.867,287.573z M348.867,256c0-5.12,4.267-8.533,8.533-8.533l0,0
		c4.267,0,8.533,3.413,8.533,8.533l0,0c0,4.267-4.267,8.533-8.533,8.533l0,0C353.133,264.533,348.867,260.267,348.867,256z
		 M348.867,224.427c0-4.267,4.267-8.533,8.533-8.533l0,0c4.267,0,8.533,4.267,8.533,8.533l0,0c0,5.12-4.267,8.533-8.533,8.533l0,0
		C353.133,232.96,348.867,229.547,348.867,224.427z M348.867,193.707c0-5.12,4.267-8.533,8.533-8.533l0,0
		c4.267,0,8.533,3.413,8.533,8.533l0,0c0,4.267-4.267,8.533-8.533,8.533l0,0C353.133,202.24,348.867,197.973,348.867,193.707z"/>
	<path d="M458.093,349.867c0-4.267,4.267-8.533,8.533-8.533l0,0c4.267,0,8.533,4.267,8.533,8.533l0,0
		c0,4.267-4.267,8.533-8.533,8.533l0,0C461.507,358.4,458.093,354.133,458.093,349.867z M421.4,349.867
		c0-4.267,4.267-8.533,8.533-8.533l0,0c4.267,0,8.533,4.267,8.533,8.533l0,0c0,4.267-4.267,8.533-8.533,8.533l0,0
		C425.667,358.4,421.4,354.133,421.4,349.867z M384.707,349.867c0-4.267,4.267-8.533,8.533-8.533l0,0
		c4.267,0,8.533,4.267,8.533,8.533l0,0c0,4.267-4.267,8.533-8.533,8.533l0,0C388.973,358.4,384.707,354.133,384.707,349.867z"/>
	<path d="M493.933,318.293c0-4.267,4.267-8.533,8.533-8.533l0,0c4.267,0,8.533,4.267,8.533,8.533l0,0
		c0,4.267-4.267,8.533-8.533,8.533l0,0C498.2,326.827,493.933,323.413,493.933,318.293z M493.933,287.573
		c0-5.12,4.267-8.533,8.533-8.533l0,0c4.267,0,8.533,3.413,8.533,8.533l0,0c0,5.12-4.267,8.533-8.533,8.533l0,0
		C498.2,296.107,493.933,291.84,493.933,287.573z M493.933,256c0-5.12,4.267-8.533,8.533-8.533l0,0c4.267,0,8.533,3.413,8.533,8.533
		l0,0c0,4.267-4.267,8.533-8.533,8.533l0,0C498.2,264.533,493.933,260.267,493.933,256z M493.933,224.427
		c0-4.267,4.267-8.533,8.533-8.533l0,0c4.267,0,8.533,4.267,8.533,8.533l0,0c0,5.12-4.267,8.533-8.533,8.533l0,0
		C498.2,232.96,493.933,229.547,493.933,224.427z M493.933,193.707c0-4.267,4.267-8.533,8.533-8.533l0,0
		c4.267,0,8.533,4.267,8.533,8.533l0,0c0,5.12-4.267,8.533-8.533,8.533l0,0C498.2,202.24,493.933,197.973,493.933,193.707z"/>
	<path d="M458.093,162.133c0-5.12,4.267-8.533,8.533-8.533l0,0c4.267,0,8.533,3.413,8.533,8.533l0,0
		c0,4.267-4.267,8.533-8.533,8.533l0,0C461.507,170.667,458.093,166.4,458.093,162.133z M421.4,162.133
		c0-5.12,4.267-8.533,8.533-8.533l0,0c4.267,0,8.533,3.413,8.533,8.533l0,0c0,4.267-4.267,8.533-8.533,8.533l0,0
		C425.667,170.667,421.4,166.4,421.4,162.133z M384.707,162.133c0-5.12,4.267-8.533,8.533-8.533l0,0
		c4.267,0,8.533,3.413,8.533,8.533l0,0c0,4.267-4.267,8.533-8.533,8.533l0,0C388.973,170.667,384.707,166.4,384.707,162.133z"/>
	<path d="M468.333,145.067c-1.707,0-3.413-0.853-5.12-1.707l-34.133-25.6c-3.413-2.56-4.267-8.533-1.707-11.947
		s8.533-4.267,11.947-1.707l34.133,25.6c3.413,2.56,4.267,8.533,1.707,11.947C473.453,144.213,470.893,145.067,468.333,145.067z"/>
	<path d="M468.333,145.067c-1.707,0-2.56,0-3.413-0.853c-3.413-1.707-5.12-4.267-5.12-7.68v-17.067c0-56.32-46.08-102.4-102.4-102.4
		c-5.12,0-8.533-3.413-8.533-8.533S352.28,0,357.4,0c65.707,0,119.467,53.76,119.467,119.467l20.48-15.36
		c3.413-2.56,9.387-1.707,11.947,1.707c2.56,3.413,1.707,9.387-1.707,11.947l-34.133,25.6
		C471.747,144.213,470.04,145.067,468.333,145.067z"/>
	<path d="M84.333,409.6c-1.707,0-3.413-0.853-5.12-1.707l-34.133-25.6c-3.413-2.56-4.267-8.533-1.707-11.947
		c2.56-3.413,8.533-4.267,11.947-1.707l34.133,25.6c3.413,2.56,4.267,8.533,1.707,11.947C89.453,408.747,86.893,409.6,84.333,409.6z
		"/>
	<path d="M161.133,512c-65.707,0-119.467-53.76-119.467-119.467l-20.48,15.36c-3.413,2.56-9.387,1.707-11.947-1.707
		s-1.707-9.387,1.707-11.947l34.133-25.6c2.56-1.707,5.973-2.56,8.533-0.853c3.413,1.707,5.12,4.267,5.12,7.68v17.067
		c0,56.32,46.08,102.4,102.4,102.4c5.12,0,8.533,3.413,8.533,8.533C169.667,508.587,166.253,512,161.133,512z"/>
</g>
</svg>