<!DOCTYPE svg PUBLIC "-//W3C//DTD SVG 1.1//EN" "http://www.w3.org/Graphics/SVG/1.1/DTD/svg11.dtd">
<!-- Uploaded to: SVG Repo, www.svgrepo.com, Transformed by: SVG Repo Mixer Tools -->
<svg fill="#ffffff" width="256px" height="256px" viewBox="0 0 64 64" xmlns="http://www.w3.org/2000/svg" stroke="#ffffff">
<g id="SVGRepo_bgCarrier" stroke-width="0"/>
<g id="SVGRepo_tracerCarrier" stroke-linecap="round" stroke-linejoin="round"/>
<g id="SVGRepo_iconCarrier"> <g id="Dust"> <path d="M45.49,41.65a7.82,7.82,0,0,0,0-15.55,5.47,5.47,0,0,0-1.19-5.88l-.22-.2c1-.39,1.6-.72,1.68-1.49s-.64-1.33-1.73-2a8.21,8.21,0,0,1-3.27-4c-.47-1.2-.78-2-1.65-2.08s-1.33.64-2,1.73a8.36,8.36,0,0,1-1.45,1.69,7.81,7.81,0,0,0-12.81,5.47,5.43,5.43,0,0,0-6.72,6.73,7.82,7.82,0,0,0-1.49,15.35,8.27,8.27,0,0,1-1.29.82c-1.15.58-1.91,1-1.91,1.84s.76,1.27,1.91,1.85A8.24,8.24,0,0,1,17,49.57c.58,1.16,1,1.92,1.84,1.92s1.27-.76,1.85-1.92c.07-.15.18-.29.27-.44a5.29,5.29,0,0,0,1.93-.4,7.82,7.82,0,0,0,15.55,0,5.42,5.42,0,0,0,7.08-7.07ZM38.78,13.26l.07-.11s0,.08,0,.12A10.27,10.27,0,0,0,43,18.2l.1.07-.11,0A10.28,10.28,0,0,0,38,22.39a.61.61,0,0,1-.07.1s0-.08,0-.11a10.29,10.29,0,0,0-4.08-4.94l-.1-.07.11,0A10.33,10.33,0,0,0,38.78,13.26Zm-20,35.53,0-.11a10.28,10.28,0,0,0-4.53-4.53l-.11-.06.11-.05a10.48,10.48,0,0,0,4.53-4.53l0-.11.06.11A10.28,10.28,0,0,0,23.4,44l.11.05-.11.06a10.23,10.23,0,0,0-4.53,4.53Zm24.08-2.66a3.45,3.45,0,0,1-4.81,0A1,1,0,0,0,36.4,47a6.18,6.18,0,0,1,.06.85,5.82,5.82,0,1,1-11.64,0,6.18,6.18,0,0,1,.06-.85,1,1,0,0,0-.53-1l-.11,0,.05,0c1.16-.58,1.92-1,1.92-1.85s-.76-1.26-1.92-1.84a8.19,8.19,0,0,1-3.63-3.64c-.58-1.15-1-1.91-1.85-1.91s-1.26.76-1.84,1.91a8.24,8.24,0,0,1-.65,1.07,5.82,5.82,0,1,1,1.25-11.55,1,1,0,0,0,1-1.57,3.43,3.43,0,0,1,4.79-4.77,1,1,0,0,0,1.11,0,1,1,0,0,0,.46-1,5.81,5.81,0,0,1,9-5.73,8.34,8.34,0,0,1-.8.38c-1.2.47-2,.78-2.08,1.66s.64,1.33,1.73,2a8.21,8.21,0,0,1,3.27,4c.47,1.2.78,2,1.66,2.08h.13c.79,0,1.23-.7,1.88-1.74a8.43,8.43,0,0,1,2.36-2.4,3.38,3.38,0,0,1,.82.58,3.45,3.45,0,0,1,0,4.81,1,1,0,0,0,.87,1.68,5.82,5.82,0,1,1,.84,11.58,5.73,5.73,0,0,1-.84-.06,1,1,0,0,0-1,.53,1,1,0,0,0,.17,1.15A3.45,3.45,0,0,1,42.89,46.13Z"/> <path d="M17.76,15.17A4.79,4.79,0,1,0,13,20,4.79,4.79,0,0,0,17.76,15.17Zm-7.57,0A2.79,2.79,0,1,1,13,18,2.79,2.79,0,0,1,10.19,15.17Z"/> <path d="M54.62,12.31a4,4,0,1,0-4,4A4,4,0,0,0,54.62,12.31Zm-6,0a2,2,0,1,1,2,2A2,2,0,0,1,48.6,12.31Z"/> <path d="M57,49.85a4,4,0,1,0-4,4A4,4,0,0,0,57,49.85Zm-6,0a2,2,0,1,1,2,2A2,2,0,0,1,51,49.85Z"/> <path d="M10.47,55.32A3.47,3.47,0,1,0,7,51.85,3.46,3.46,0,0,0,10.47,55.32Zm0-4.93A1.47,1.47,0,1,1,9,51.85,1.47,1.47,0,0,1,10.47,50.39Z"/> </g> </g>
</svg>