<?xml version="1.0" encoding="utf-8"?>
<!-- Uploaded to: SVG Repo, www.svgrepo.com, Generator: SVG Repo Mixer Tools -->
<svg width="800px" height="800px" viewBox="0 -5.5 80 80" xmlns="http://www.w3.org/2000/svg">
  <g id="Web_design" data-name="Web design" transform="translate(-240.001 -233.142)">
    <g id="Group_20" data-name="Group 20">
      <g id="Group_19" data-name="Group 19">
        <g id="Group_18" data-name="Group 18">
          <g id="Group_17" data-name="Group 17">
            <path id="Path_36" data-name="Path 36" d="M320,236.142v63a3,3,0,0,1-3,3H243a3,3,0,0,1-3-3v-63a3,3,0,0,1,3-3h74A3,3,0,0,1,320,236.142Zm-6,60v-43H246v43Zm0-49v-8H246v8Z" fill="#104386"/>
            <path id="Path_37" data-name="Path 37" d="M308.981,263.382V275.5a3,3,0,0,1-3,3H293.86a3,3,0,0,1-3-3v-12.12a3,3,0,0,1,3-3h12.121A3,3,0,0,1,308.981,263.382Zm-6,9.12v-6.12H296.86v6.12Z" fill="#104386"/>
            <path id="Path_38" data-name="Path 38" d="M305.981,283.142a3,3,0,0,1,0,6H293.86a3,3,0,0,1,0-6Z" fill="#104386"/>
            <rect id="Rectangle_7" data-name="Rectangle 7" width="6.12" height="6.12" transform="translate(296.86 266.382)" fill="#ffffff"/>
            <path id="Path_39" data-name="Path 39" d="M289.06,263.382V275.5a3,3,0,0,1-3,3H273.941a3,3,0,0,1-3-3v-12.12a3,3,0,0,1,3-3H286.06A3,3,0,0,1,289.06,263.382Zm-6,9.12v-6.12h-6.119v6.12Z" fill="#104386"/>
            <path id="Path_40" data-name="Path 40" d="M286.06,283.142a3,3,0,0,1,0,6H273.941a3,3,0,0,1,0-6Z" fill="#104386"/>
            <rect id="Rectangle_8" data-name="Rectangle 8" width="6.12" height="6.12" transform="translate(276.94 266.382)" fill="#ffffff"/>
            <path id="Path_41" data-name="Path 41" d="M293.86,283.142a3,3,0,0,0,0,6h12.121a3,3,0,0,0,0-6Zm-3-7.64a3,3,0,0,0,3,3h12.121a3,3,0,0,0,3-3v-12.12a3,3,0,0,0-3-3H293.86a3,3,0,0,0-3,3Zm-21.72,10.64a3,3,0,0,0-3-3H254.01a3,3,0,0,0,0,6h12.13A3,3,0,0,0,269.14,286.142Zm-3-7.64a3,3,0,0,0,3-3v-12.12a3,3,0,0,0-3-3H254.01a3,3,0,0,0-3,3V275.5a3,3,0,0,0,3,3Zm7.8,4.64a3,3,0,0,0,0,6H286.06a3,3,0,0,0,0-6Zm-3-7.64a3,3,0,0,0,3,3H286.06a3,3,0,0,0,3-3v-12.12a3,3,0,0,0-3-3H273.941a3,3,0,0,0-3,3ZM314,253.142v43H246v-43Z" fill="#f60"/>
            <path id="Path_42" data-name="Path 42" d="M269.14,263.382V275.5a3,3,0,0,1-3,3H254.01a3,3,0,0,1-3-3v-12.12a3,3,0,0,1,3-3h12.13A3,3,0,0,1,269.14,263.382Zm-6,9.12v-6.12h-6.13v6.12Z" fill="#104386"/>
            <path id="Path_43" data-name="Path 43" d="M266.14,283.142a3,3,0,0,1,0,6H254.01a3,3,0,0,1,0-6Z" fill="#104386"/>
            <rect id="Rectangle_9" data-name="Rectangle 9" width="6.13" height="6.12" transform="translate(257.01 266.382)" fill="#ffffff"/>
            <path id="Path_44" data-name="Path 44" d="M259.15,241.022a3,3,0,1,1-4.24,0A3.1,3.1,0,0,1,259.15,241.022Z" fill="#104386"/>
            <path id="Path_45" data-name="Path 45" d="M252.15,241.022a3,3,0,1,1-4.24,0A3.1,3.1,0,0,1,252.15,241.022Z" fill="#104386"/>
            <path id="Path_46" data-name="Path 46" d="M252.15,245.262a2.994,2.994,0,0,0,0-4.24,3.1,3.1,0,0,0-4.24,0,3,3,0,1,0,4.24,4.24Zm2.76-4.24a3,3,0,1,0,4.24,0A3.1,3.1,0,0,0,254.91,241.022ZM314,247.142H246v-8h68Z" fill="#69f"/>
          </g>
        </g>
      </g>
    </g>
  </g>
</svg>