<svg xmlns="http://www.w3.org/2000/svg" xmlns:xlink="http://www.w3.org/1999/xlink" viewBox="0 0 800 800" width="800" height="800" preserveAspectRatio="xMidYMid meet" style="width: 100%; height: 100%; transform: translate3d(0px, 0px, 0px); content-visibility: visible;"><defs><clipPath id="__lottie_element_6242"><rect width="800" height="800" x="0" y="0"/></clipPath></defs><g clip-path="url(#__lottie_element_6242)"><g transform="matrix(1,0,0,1,-0.25,-0.25)" opacity="1" style="display: block;"><g opacity="1" transform="matrix(1,0,0,1,400.25,400.25)"><path fill="rgb(62,117,195)" fill-opacity="1" d=" M0,400 C0,400 0,400 0,400 C220.91400146484375,400 400,220.91400146484375 400,0 C400,-220.91400146484375 220.91400146484375,-400 0,-400 C-220.91400146484375,-400 -400,-220.91400146484375 -400,0 C-400,220.91400146484375 -220.91400146484375,400 0,400z"/></g><g opacity="1" transform="matrix(1,0,0,1,400.25,395.760009765625)"><path fill="rgb(255,255,255)" fill-opacity="1" d=" M-0.017000000923871994,-262.177001953125 C-147.26699829101562,-262.177001953125 -266.6669921875,-142.32000732421875 -266.6669921875,5.564000129699707 C-266.6669921875,123.83000183105469 -190.26699829101562,224.177001953125 -84.28399658203125,259.5830078125 C-70.94999694824219,262.0429992675781 -66.08399963378906,253.77699279785156 -66.08399963378906,246.6820068359375 C-66.08399963378906,240.32400512695312 -66.31700134277344,223.49099731445312 -66.44999694824219,201.15199279785156 C-140.63400268554688,217.33299255371094 -156.28399658203125,165.26100158691406 -156.28399658203125,165.26100158691406 C-168.39999389648438,134.33900451660156 -185.88400268554688,126.10600280761719 -185.88400268554688,126.10600280761719 C-210.10000610351562,109.49099731445312 -184.0500030517578,109.82499694824219 -184.0500030517578,109.82499694824219 C-157.3000030517578,111.71600341796875 -143.2169952392578,137.41700744628906 -143.2169952392578,137.41700744628906 C-119.41699981689453,178.32899475097656 -80.80000305175781,166.51600646972656 -65.5999984741211,159.65499877929688 C-63.183998107910156,142.35400390625 -56.284000396728516,130.5570068359375 -48.66699981689453,123.86399841308594 C-107.88400268554688,117.10399627685547 -170.13400268554688,94.14700317382812 -170.13400268554688,-8.442000389099121 C-170.13400268554688,-37.67399978637695 -159.75,-61.56800079345703 -142.6840057373047,-80.29199981689453 C-145.4340057373047,-87.06900024414062 -154.58399963378906,-114.2760009765625 -140.08399963378906,-151.13900756835938 C-140.08399963378906,-151.13900756835938 -117.68399810791016,-158.33399963378906 -66.75,-123.6969985961914 C-45.46699905395508,-129.63699340820312 -22.66699981689453,-132.5989990234375 0.01600000075995922,-132.71600341796875 C22.666000366210938,-132.5989990234375 45.483001708984375,-129.63699340820312 66.78299713134766,-123.6969985961914 C117.68299865722656,-158.33399963378906 140.0330047607422,-151.13900756835938 140.0330047607422,-151.13900756835938 C154.58299255371094,-114.2760009765625 145.43299865722656,-87.06900024414062 142.68299865722656,-80.29199981689453 C159.7830047607422,-61.56800079345703 170.10000610351562,-37.67399978637695 170.10000610351562,-8.442000389099121 C170.10000610351562,94.39800262451172 107.75,117.03700256347656 48.349998474121094,123.66300201416016 C57.91600036621094,131.9290008544922 66.44999694824219,148.25999450683594 66.44999694824219,173.24200439453125 C66.44999694824219,209.03399658203125 66.11599731445312,237.8979949951172 66.11599731445312,246.6820068359375 C66.11599731445312,253.843994140625 70.91600036621094,262.177001953125 84.44999694824219,259.54998779296875 C190.33299255371094,224.0760040283203 266.6669921875,123.7969970703125 266.6669921875,5.564000129699707 C266.6669921875,-142.32000732421875 147.26600646972656,-262.177001953125 -0.017000000923871994,-262.177001953125z"/></g></g></g></svg>