<svg xmlns="http://www.w3.org/2000/svg" xmlns:xlink="http://www.w3.org/1999/xlink" version="1.1" width="256" height="256" viewBox="0 0 256 256" xml:space="preserve">

<defs>
</defs>
<g style="stroke: none; stroke-width: 0; stroke-dasharray: none; stroke-linecap: butt; stroke-linejoin: miter; stroke-miterlimit: 10; fill: none; fill-rule: nonzero; opacity: 1;" transform="translate(1.4065934065934016 1.4065934065934016) scale(2.81 2.81)" >
	<path d="M 84.332 65.797 H 5.668 C 3.09 65.797 1 63.707 1 61.129 V 9.958 C 1 7.38 3.09 5.29 5.668 5.29 h 78.665 C 86.91 5.29 89 7.38 89 9.958 v 51.171 C 89 63.707 86.91 65.797 84.332 65.797 z" style="stroke: none; stroke-width: 1; stroke-dasharray: none; stroke-linecap: butt; stroke-linejoin: miter; stroke-miterlimit: 10; fill: rgb(60,88,160); fill-rule: nonzero; opacity: 1;" transform=" matrix(1 0 0 1 0 0) " stroke-linecap="round" />
	<path d="M 60.073 79.041 c -2.233 -4.046 -3.413 -8.601 -3.413 -13.244 H 33.341 c 0 4.643 -1.18 9.198 -3.413 13.244 H 60.073 z" style="stroke: none; stroke-width: 1; stroke-dasharray: none; stroke-linecap: butt; stroke-linejoin: miter; stroke-miterlimit: 10; fill: rgb(174,187,235); fill-rule: nonzero; opacity: 1;" transform=" matrix(1 0 0 1 0 0) " stroke-linecap="round" />
	<path d="M 84.332 4.291 H 5.668 C 2.542 4.291 0 6.833 0 9.958 v 51.171 c 0 3.125 2.542 5.668 5.668 5.668 h 78.664 c 3.125 0 5.668 -2.543 5.668 -5.668 V 9.958 C 90 6.833 87.457 4.291 84.332 4.291 z M 5.668 6.291 h 78.664 C 86.354 6.291 88 7.936 88 9.958 v 42.631 H 2 V 9.958 C 2 7.936 3.646 6.291 5.668 6.291 z" style="stroke: none; stroke-width: 1; stroke-dasharray: none; stroke-linecap: butt; stroke-linejoin: miter; stroke-miterlimit: 10; fill: rgb(190,202,245); fill-rule: nonzero; opacity: 1;" transform=" matrix(1 0 0 1 0 0) " stroke-linecap="round" />
	<path d="M 68.064 84.71 H 21.936 v -2.397 c 0 -2.912 2.36 -5.272 5.272 -5.272 h 35.584 c 2.912 0 5.272 2.36 5.272 5.272 V 84.71 z" style="stroke: none; stroke-width: 1; stroke-dasharray: none; stroke-linecap: butt; stroke-linejoin: miter; stroke-miterlimit: 10; fill: rgb(190,202,245); fill-rule: nonzero; opacity: 1;" transform=" matrix(1 0 0 1 0 0) " stroke-linecap="round" />
	<path d="M 15.795 31.631 c -0.268 0 -0.535 -0.107 -0.732 -0.319 l -6.04 -6.488 c -0.357 -0.384 -0.357 -0.979 0 -1.362 l 6.04 -6.488 c 0.377 -0.405 1.01 -0.426 1.413 -0.051 c 0.404 0.376 0.427 1.009 0.051 1.413 l -5.405 5.807 l 5.405 5.807 c 0.376 0.404 0.354 1.037 -0.051 1.413 C 16.284 31.542 16.039 31.631 15.795 31.631 z" style="stroke: none; stroke-width: 1; stroke-dasharray: none; stroke-linecap: butt; stroke-linejoin: miter; stroke-miterlimit: 10; fill: rgb(59,170,226); fill-rule: nonzero; opacity: 1;" transform=" matrix(1 0 0 1 0 0) " stroke-linecap="round" />
	<path d="M 32.978 31.631 c -0.244 0 -0.489 -0.089 -0.681 -0.268 c -0.404 -0.376 -0.427 -1.009 -0.051 -1.413 l 5.405 -5.807 l -5.405 -5.807 c -0.376 -0.404 -0.354 -1.037 0.051 -1.413 c 0.403 -0.375 1.037 -0.355 1.413 0.051 l 6.04 6.488 c 0.357 0.384 0.357 0.979 0 1.362 l -6.04 6.488 C 33.513 31.524 33.245 31.631 32.978 31.631 z" style="stroke: none; stroke-width: 1; stroke-dasharray: none; stroke-linecap: butt; stroke-linejoin: miter; stroke-miterlimit: 10; fill: rgb(59,170,226); fill-rule: nonzero; opacity: 1;" transform=" matrix(1 0 0 1 0 0) " stroke-linecap="round" />
	<path d="M 21.471 33.657 c -0.107 0 -0.217 -0.018 -0.324 -0.054 c -0.522 -0.179 -0.801 -0.748 -0.622 -1.271 l 5.831 -17.027 c 0.179 -0.522 0.747 -0.802 1.271 -0.622 c 0.522 0.179 0.801 0.748 0.622 1.271 l -5.831 17.027 C 22.274 33.396 21.886 33.657 21.471 33.657 z" style="stroke: none; stroke-width: 1; stroke-dasharray: none; stroke-linecap: butt; stroke-linejoin: miter; stroke-miterlimit: 10; fill: rgb(59,170,226); fill-rule: nonzero; opacity: 1;" transform=" matrix(1 0 0 1 0 0) " stroke-linecap="round" />
	<path d="M 61.566 17.392 H 49.371 c -0.553 0 -1 -0.448 -1 -1 s 0.447 -1 1 -1 h 12.195 c 0.553 0 1 0.448 1 1 S 62.119 17.392 61.566 17.392 z" style="stroke: none; stroke-width: 1; stroke-dasharray: none; stroke-linecap: butt; stroke-linejoin: miter; stroke-miterlimit: 10; fill: rgb(255,221,64); fill-rule: nonzero; opacity: 1;" transform=" matrix(1 0 0 1 0 0) " stroke-linecap="round" />
	<path d="M 80.664 17.392 h -9.435 c -0.553 0 -1 -0.448 -1 -1 s 0.447 -1 1 -1 h 9.435 c 0.553 0 1 0.448 1 1 S 81.217 17.392 80.664 17.392 z" style="stroke: none; stroke-width: 1; stroke-dasharray: none; stroke-linecap: butt; stroke-linejoin: miter; stroke-miterlimit: 10; fill: rgb(136,206,101); fill-rule: nonzero; opacity: 1;" transform=" matrix(1 0 0 1 0 0) " stroke-linecap="round" />
	<path d="M 80.664 26.392 H 49.371 c -0.553 0 -1 -0.448 -1 -1 s 0.447 -1 1 -1 h 31.293 c 0.553 0 1 0.448 1 1 S 81.217 26.392 80.664 26.392 z" style="stroke: none; stroke-width: 1; stroke-dasharray: none; stroke-linecap: butt; stroke-linejoin: miter; stroke-miterlimit: 10; fill: rgb(227,67,255); fill-rule: nonzero; opacity: 1;" transform=" matrix(1 0 0 1 0 0) " stroke-linecap="round" />
	<path d="M 80.664 35.392 H 63.371 c -0.553 0 -1 -0.448 -1 -1 s 0.447 -1 1 -1 h 17.293 c 0.553 0 1 0.448 1 1 S 81.217 35.392 80.664 35.392 z" style="stroke: none; stroke-width: 1; stroke-dasharray: none; stroke-linecap: butt; stroke-linejoin: miter; stroke-miterlimit: 10; fill: rgb(136,206,101); fill-rule: nonzero; opacity: 1;" transform=" matrix(1 0 0 1 0 0) " stroke-linecap="round" />
	<path d="M 54.664 35.392 h -5.293 c -0.553 0 -1 -0.448 -1 -1 s 0.447 -1 1 -1 h 5.293 c 0.553 0 1 0.448 1 1 S 55.217 35.392 54.664 35.392 z" style="stroke: none; stroke-width: 1; stroke-dasharray: none; stroke-linecap: butt; stroke-linejoin: miter; stroke-miterlimit: 10; fill: rgb(255,221,64); fill-rule: nonzero; opacity: 1;" transform=" matrix(1 0 0 1 0 0) " stroke-linecap="round" />
	<path d="M 80.664 44.392 H 57.371 c -0.553 0 -1 -0.448 -1 -1 s 0.447 -1 1 -1 h 23.293 c 0.553 0 1 0.448 1 1 S 81.217 44.392 80.664 44.392 z" style="stroke: none; stroke-width: 1; stroke-dasharray: none; stroke-linecap: butt; stroke-linejoin: miter; stroke-miterlimit: 10; fill: rgb(227,67,255); fill-rule: nonzero; opacity: 1;" transform=" matrix(1 0 0 1 0 0) " stroke-linecap="round" />
	<path d="M 21.582 44.392 H 9.486 c -0.552 0 -1 -0.448 -1 -1 s 0.448 -1 1 -1 h 12.096 c 0.552 0 1 0.448 1 1 S 22.134 44.392 21.582 44.392 z" style="stroke: none; stroke-width: 1; stroke-dasharray: none; stroke-linecap: butt; stroke-linejoin: miter; stroke-miterlimit: 10; fill: rgb(136,206,101); fill-rule: nonzero; opacity: 1;" transform=" matrix(1 0 0 1 0 0) " stroke-linecap="round" />
	<path d="M 49.371 44.392 h -19 c -0.552 0 -1 -0.448 -1 -1 s 0.448 -1 1 -1 h 19 c 0.553 0 1 0.448 1 1 S 49.924 44.392 49.371 44.392 z" style="stroke: none; stroke-width: 1; stroke-dasharray: none; stroke-linecap: butt; stroke-linejoin: miter; stroke-miterlimit: 10; fill: rgb(255,221,64); fill-rule: nonzero; opacity: 1;" transform=" matrix(1 0 0 1 0 0) " stroke-linecap="round" />
</g>
</svg>