<svg xmlns="http://www.w3.org/2000/svg" xmlns:xlink="http://www.w3.org/1999/xlink" version="1.1" width="256" height="256" viewBox="0 0 256 256" xml:space="preserve">

<defs>
</defs>
<g style="stroke: none; stroke-width: 0; stroke-dasharray: none; stroke-linecap: butt; stroke-linejoin: miter; stroke-miterlimit: 10; fill: none; fill-rule: nonzero; opacity: 1;" transform="translate(1.4065934065934016 1.4065934065934016) scale(2.81 2.81)" >
	<path d="M 51.651 18.591 h 33.444 c 2.157 0 3.905 1.749 3.905 3.905 v 47.872 H 1 V 22.497 c 0 -2.157 1.749 -3.905 3.905 -3.905 h 4.898 H 51.651 z" style="stroke: none; stroke-width: 1; stroke-dasharray: none; stroke-linecap: butt; stroke-linejoin: miter; stroke-miterlimit: 10; fill: rgb(238,240,245); fill-rule: nonzero; opacity: 1;" transform=" matrix(1 0 0 1 0 0) " stroke-linecap="round" />
	<path d="M 85.095 87.773 H 4.905 C 2.749 87.773 1 86.024 1 83.867 V 70.369 h 88 v 13.498 C 89 86.024 87.251 87.773 85.095 87.773 z" style="stroke: none; stroke-width: 1; stroke-dasharray: none; stroke-linecap: butt; stroke-linejoin: miter; stroke-miterlimit: 10; fill: rgb(240,114,129); fill-rule: nonzero; opacity: 1;" transform=" matrix(1 0 0 1 0 0) " stroke-linecap="round" />
	<path d="M 60.26 41.435 l -6.271 -3.212 l 6.271 -3.212 v -5.592 c 0 -1.135 0.92 -2.056 2.056 -2.056 h 18.287 c 1.135 0 2.056 0.92 2.056 2.056 v 15.727 c 0 1.135 -0.92 2.056 -2.056 2.056 H 62.316 c -1.135 0 -2.056 -0.92 -2.056 -2.056 V 41.435 z" style="stroke: none; stroke-width: 1; stroke-dasharray: none; stroke-linecap: butt; stroke-linejoin: miter; stroke-miterlimit: 10; fill: rgb(179,218,254); fill-rule: nonzero; opacity: 1;" transform=" matrix(1 0 0 1 0 0) " stroke-linecap="round" />
	<polyline points="27.12,79.07 18.74,83.26 18.74,74.88 27.12,79.07 " style="stroke: none; stroke-width: 1; stroke-dasharray: none; stroke-linecap: butt; stroke-linejoin: miter; stroke-miterlimit: 10; fill: rgb(255,255,255); fill-rule: nonzero; opacity: 1;" transform="  matrix(1 0 0 1 0 0) "/>
	<path d="M 46.577 46.072 V 20.151 v -1.639 c 0 -8.994 -7.291 -16.285 -16.285 -16.285 h 0 c -8.994 0 -16.285 7.291 -16.285 16.285 v 1.639 v 25.921 H 46.577 z" style="stroke: none; stroke-width: 1; stroke-dasharray: none; stroke-linecap: butt; stroke-linejoin: miter; stroke-miterlimit: 10; fill: rgb(63,110,144); fill-rule: nonzero; opacity: 1;" transform=" matrix(1 0 0 1 0 0) " stroke-linecap="round" />
	<path d="M 37.478 38.775 l 0.014 1.296 c 0 2.515 1.797 4.67 4.271 5.122 l 6.391 1.168 c 3.366 0.615 5.812 3.549 5.812 6.971 v 17.038 H 30.291 H 6.618 V 53.331 c 0 -3.422 2.446 -6.356 5.812 -6.971 l 6.391 -1.168 c 2.474 -0.452 4.271 -2.607 4.271 -5.122 v -1.358 L 37.478 38.775 z" style="stroke: none; stroke-width: 1; stroke-dasharray: none; stroke-linecap: butt; stroke-linejoin: miter; stroke-miterlimit: 10; fill: rgb(249,208,112); fill-rule: nonzero; opacity: 1;" transform=" matrix(1 0 0 1 0 0) " stroke-linecap="round" />
	<path d="M 42.514 18.536 v 8.433 c 0 7.152 -5.472 14.95 -12.223 14.95 h 0 c -6.75 0 -12.223 -7.798 -12.223 -14.95 v -8.433 c 7.036 -0.024 11.806 -0.968 16.035 -3.018 C 36.495 17.469 38.824 18.513 42.514 18.536 z" style="stroke: none; stroke-width: 1; stroke-dasharray: none; stroke-linecap: butt; stroke-linejoin: miter; stroke-miterlimit: 10; fill: rgb(236,190,155); fill-rule: nonzero; opacity: 1;" transform=" matrix(1 0 0 1 0 0) " stroke-linecap="round" />
	<path d="M 37.478 38.775 l 0.014 1.296 c 0 2.515 1.797 4.67 4.271 5.122 c -2.377 6.973 -6.282 12.273 -11.47 16.167 c -5.188 -3.894 -9.094 -9.193 -11.47 -16.167 c 2.474 -0.452 4.271 -2.607 4.271 -5.122 v -1.358 L 37.478 38.775 z" style="stroke: none; stroke-width: 1; stroke-dasharray: none; stroke-linecap: butt; stroke-linejoin: miter; stroke-miterlimit: 10; fill: rgb(236,190,155); fill-rule: nonzero; opacity: 1;" transform=" matrix(1 0 0 1 0 0) " stroke-linecap="round" />
	<path d="M 44.516 70.369 v -4.827 c 0 -1.803 0.765 -3.522 2.104 -4.729 l 7.344 -6.618 v 16.174 H 44.516 z" style="stroke: none; stroke-width: 1; stroke-dasharray: none; stroke-linecap: butt; stroke-linejoin: miter; stroke-miterlimit: 10; fill: rgb(236,190,155); fill-rule: nonzero; opacity: 1;" transform=" matrix(1 0 0 1 0 0) " stroke-linecap="round" />
	<path d="M 16.067 70.369 v -4.827 c 0 -1.803 -0.765 -3.522 -2.104 -4.729 l -7.344 -6.618 v 16.174 H 16.067 z" style="stroke: none; stroke-width: 1; stroke-dasharray: none; stroke-linecap: butt; stroke-linejoin: miter; stroke-miterlimit: 10; fill: rgb(236,190,155); fill-rule: nonzero; opacity: 1;" transform=" matrix(1 0 0 1 0 0) " stroke-linecap="round" />
	<path d="M 35.934 32.733 c -3.529 4.639 -7.058 4.671 -10.587 0 H 35.934 z" style="stroke: none; stroke-width: 1; stroke-dasharray: none; stroke-linecap: butt; stroke-linejoin: miter; stroke-miterlimit: 10; fill: rgb(255,255,255); fill-rule: nonzero; opacity: 1;" transform=" matrix(1 0 0 1 0 0) " stroke-linecap="round" />
	<path d="M 85.097 17.591 l -32.518 -0.079 c 0 0 -0.001 0 -0.002 0 c -0.551 0 -0.999 0.446 -1 0.998 c -0.001 0.552 0.445 1.001 0.998 1.002 l 32.52 0.079 c 1.602 0 2.905 1.303 2.905 2.905 v 46.873 H 2 V 22.497 c 0 -1.602 1.303 -2.905 2.931 -2.906 l 3.101 -0.079 c 0.552 -0.014 0.988 -0.473 0.974 -1.025 c -0.014 -0.553 -0.495 -1.005 -1.025 -0.974 l -3.075 0.078 C 2.201 17.591 0 19.792 0 22.497 v 47.873 v 13.498 c 0 2.705 2.201 4.905 4.905 4.905 h 80.189 c 2.705 0 4.905 -2.2 4.905 -4.905 V 70.369 V 22.497 C 90 19.792 87.8 17.591 85.097 17.591 z M 88 83.867 c 0 1.602 -1.304 2.905 -2.905 2.905 H 4.905 C 3.303 86.772 2 85.469 2 83.867 V 71.369 h 86 V 83.867 z" style="stroke: none; stroke-width: 1; stroke-dasharray: none; stroke-linecap: butt; stroke-linejoin: miter; stroke-miterlimit: 10; fill: rgb(7,42,56); fill-rule: nonzero; opacity: 1;" transform=" matrix(1 0 0 1 0 0) " stroke-linecap="round" />
	<path d="M 78.476 33.227 H 64.443 c -0.553 0 -1 -0.448 -1 -1 s 0.447 -1 1 -1 h 14.032 c 0.553 0 1 0.448 1 1 S 79.028 33.227 78.476 33.227 z" style="stroke: none; stroke-width: 1; stroke-dasharray: none; stroke-linecap: butt; stroke-linejoin: miter; stroke-miterlimit: 10; fill: rgb(7,42,56); fill-rule: nonzero; opacity: 1;" transform=" matrix(1 0 0 1 0 0) " stroke-linecap="round" />
	<path d="M 82.659 80.07 H 33.122 c -0.552 0 -1 -0.447 -1 -1 s 0.448 -1 1 -1 h 49.538 c 0.553 0 1 0.447 1 1 S 83.212 80.07 82.659 80.07 z" style="stroke: none; stroke-width: 1; stroke-dasharray: none; stroke-linecap: butt; stroke-linejoin: miter; stroke-miterlimit: 10; fill: rgb(7,42,56); fill-rule: nonzero; opacity: 1;" transform=" matrix(1 0 0 1 0 0) " stroke-linecap="round" />
	<path d="M 12.736 80.07 H 7.341 c -0.552 0 -1 -0.447 -1 -1 s 0.448 -1 1 -1 h 5.396 c 0.552 0 1 0.447 1 1 S 13.289 80.07 12.736 80.07 z" style="stroke: none; stroke-width: 1; stroke-dasharray: none; stroke-linecap: butt; stroke-linejoin: miter; stroke-miterlimit: 10; fill: rgb(7,42,56); fill-rule: nonzero; opacity: 1;" transform=" matrix(1 0 0 1 0 0) " stroke-linecap="round" />
	<path d="M 78.476 38.227 H 64.443 c -0.553 0 -1 -0.448 -1 -1 s 0.447 -1 1 -1 h 14.032 c 0.553 0 1 0.448 1 1 S 79.028 38.227 78.476 38.227 z" style="stroke: none; stroke-width: 1; stroke-dasharray: none; stroke-linecap: butt; stroke-linejoin: miter; stroke-miterlimit: 10; fill: rgb(7,42,56); fill-rule: nonzero; opacity: 1;" transform=" matrix(1 0 0 1 0 0) " stroke-linecap="round" />
	<path d="M 72.476 43.227 h -8.032 c -0.553 0 -1 -0.448 -1 -1 s 0.447 -1 1 -1 h 8.032 c 0.553 0 1 0.448 1 1 S 73.028 43.227 72.476 43.227 z" style="stroke: none; stroke-width: 1; stroke-dasharray: none; stroke-linecap: butt; stroke-linejoin: miter; stroke-miterlimit: 10; fill: rgb(7,42,56); fill-rule: nonzero; opacity: 1;" transform=" matrix(1 0 0 1 0 0) " stroke-linecap="round" />
	<path d="M 80.604 48.202 H 62.316 c -1.686 0 -3.057 -1.371 -3.057 -3.056 v -3.099 l -5.727 -2.933 c -0.334 -0.171 -0.544 -0.515 -0.544 -0.89 s 0.21 -0.719 0.544 -0.89 L 59.26 34.4 v -4.981 c 0 -1.685 1.371 -3.056 3.057 -3.056 h 18.287 c 1.685 0 3.056 1.371 3.056 3.056 v 15.727 C 83.659 46.831 82.288 48.202 80.604 48.202 z M 56.183 38.224 l 4.533 2.322 c 0.334 0.171 0.544 0.515 0.544 0.89 v 3.71 c 0 0.583 0.474 1.056 1.057 1.056 h 18.287 c 0.582 0 1.056 -0.474 1.056 -1.056 V 29.419 c 0 -0.583 -0.474 -1.056 -1.056 -1.056 H 62.316 c -0.583 0 -1.057 0.474 -1.057 1.056 v 5.592 c 0 0.375 -0.21 0.719 -0.544 0.89 L 56.183 38.224 z" style="stroke: none; stroke-width: 1; stroke-dasharray: none; stroke-linecap: butt; stroke-linejoin: miter; stroke-miterlimit: 10; fill: rgb(7,42,56); fill-rule: nonzero; opacity: 1;" transform=" matrix(1 0 0 1 0 0) " stroke-linecap="round" />
	<path d="M 18.736 84.264 c -0.183 0 -0.365 -0.05 -0.526 -0.149 c -0.294 -0.182 -0.474 -0.504 -0.474 -0.851 v -8.386 c 0 -0.347 0.18 -0.668 0.474 -0.851 c 0.295 -0.184 0.663 -0.198 0.973 -0.044 l 8.385 4.192 c 0.339 0.17 0.553 0.516 0.553 0.895 s -0.214 0.725 -0.553 0.895 l -8.385 4.193 C 19.042 84.229 18.889 84.264 18.736 84.264 z M 19.736 76.496 v 5.149 l 5.149 -2.575 L 19.736 76.496 z" style="stroke: none; stroke-width: 1; stroke-dasharray: none; stroke-linecap: butt; stroke-linejoin: miter; stroke-miterlimit: 10; fill: rgb(7,42,56); fill-rule: nonzero; opacity: 1;" transform=" matrix(1 0 0 1 0 0) " stroke-linecap="round" />
	<path d="M 23.948 25.898 c -0.361 0 -0.709 -0.196 -0.888 -0.538 c -0.255 -0.49 -0.065 -1.094 0.424 -1.349 c 1.838 -0.958 3.702 -0.958 5.54 0 c 0.49 0.255 0.68 0.859 0.424 1.349 c -0.255 0.49 -0.857 0.68 -1.349 0.424 c -1.241 -0.647 -2.448 -0.647 -3.69 0 C 24.262 25.862 24.104 25.898 23.948 25.898 z" style="stroke: none; stroke-width: 1; stroke-dasharray: none; stroke-linecap: butt; stroke-linejoin: miter; stroke-miterlimit: 10; fill: rgb(7,42,56); fill-rule: nonzero; opacity: 1;" transform=" matrix(1 0 0 1 0 0) " stroke-linecap="round" />
	<path d="M 37.333 25.898 c -0.156 0 -0.314 -0.036 -0.461 -0.113 c -1.241 -0.647 -2.448 -0.647 -3.69 0 c -0.49 0.255 -1.094 0.064 -1.349 -0.424 c -0.255 -0.49 -0.065 -1.094 0.424 -1.349 c 1.838 -0.958 3.702 -0.958 5.54 0 c 0.49 0.255 0.68 0.859 0.424 1.349 C 38.042 25.703 37.693 25.898 37.333 25.898 z" style="stroke: none; stroke-width: 1; stroke-dasharray: none; stroke-linecap: butt; stroke-linejoin: miter; stroke-miterlimit: 10; fill: rgb(7,42,56); fill-rule: nonzero; opacity: 1;" transform=" matrix(1 0 0 1 0 0) " stroke-linecap="round" />
	<path d="M 30.631 37.223 c -0.003 0 -0.005 0 -0.008 0 c -2.083 -0.003 -4.127 -1.312 -6.074 -3.888 c -0.229 -0.303 -0.267 -0.709 -0.097 -1.049 c 0.169 -0.339 0.516 -0.554 0.895 -0.554 h 10.587 c 0.38 0 0.727 0.215 0.896 0.556 c 0.169 0.341 0.13 0.748 -0.1 1.05 C 34.768 35.916 32.716 37.223 30.631 37.223 z M 27.56 33.732 c 1.053 0.989 2.08 1.489 3.067 1.491 c 0.001 0 0.003 0 0.005 0 c 0.989 0 2.021 -0.5 3.081 -1.491 H 27.56 z" style="stroke: none; stroke-width: 1; stroke-dasharray: none; stroke-linecap: butt; stroke-linejoin: miter; stroke-miterlimit: 10; fill: rgb(7,42,56); fill-rule: nonzero; opacity: 1;" transform=" matrix(1 0 0 1 0 0) " stroke-linecap="round" />
	<path d="M 16.067 71.369 c -0.552 0 -1 -0.447 -1 -1 v -4.827 c 0 -1.518 -0.646 -2.971 -1.774 -3.986 l -7.344 -6.617 c -0.41 -0.37 -0.443 -1.002 -0.074 -1.412 c 0.37 -0.411 1.002 -0.442 1.413 -0.074 l 7.344 6.617 c 1.547 1.395 2.435 3.389 2.435 5.473 v 4.827 C 17.067 70.922 16.619 71.369 16.067 71.369 z" style="stroke: none; stroke-width: 1; stroke-dasharray: none; stroke-linecap: butt; stroke-linejoin: miter; stroke-miterlimit: 10; fill: rgb(7,42,56); fill-rule: nonzero; opacity: 1;" transform=" matrix(1 0 0 1 0 0) " stroke-linecap="round" />
	<path d="M 44.516 71.369 c -0.552 0 -1 -0.447 -1 -1 v -4.827 c 0 -2.083 0.887 -4.078 2.435 -5.473 l 7.345 -6.617 c 0.407 -0.369 1.042 -0.338 1.412 0.074 c 0.369 0.41 0.337 1.042 -0.074 1.412 l -7.345 6.617 c -1.127 1.016 -1.773 2.469 -1.773 3.986 v 4.827 C 45.516 70.922 45.068 71.369 44.516 71.369 z" style="stroke: none; stroke-width: 1; stroke-dasharray: none; stroke-linecap: butt; stroke-linejoin: miter; stroke-miterlimit: 10; fill: rgb(7,42,56); fill-rule: nonzero; opacity: 1;" transform=" matrix(1 0 0 1 0 0) " stroke-linecap="round" />
	<path d="M 48.332 45.376 l -0.755 -0.138 V 18.513 c 0 -9.531 -7.754 -17.285 -17.286 -17.285 S 13.006 8.981 13.006 18.513 v 26.726 l -0.755 0.138 c -3.843 0.703 -6.633 4.047 -6.633 7.955 v 17.038 c 0 0.553 0.448 1 1 1 h 47.347 c 0.553 0 1 -0.447 1 -1 V 53.331 C 54.965 49.425 52.176 46.079 48.332 45.376 z M 15.006 18.513 c 0 -8.428 6.857 -15.285 15.286 -15.285 s 15.286 6.857 15.286 15.285 v 26.36 l -3.636 -0.664 c -1.999 -0.365 -3.45 -2.105 -3.45 -4.149 l -0.009 -0.871 c 3.102 -3.15 5.032 -7.83 5.032 -12.219 v -8.433 c 0 -0.55 -0.444 -0.997 -0.994 -1 c -3.648 -0.023 -5.75 -1.134 -7.784 -2.793 c -0.302 -0.246 -0.718 -0.294 -1.068 -0.125 c -4.173 2.022 -8.839 2.896 -15.603 2.918 c -0.551 0.002 -0.997 0.449 -0.997 1 v 8.433 c 0 4.385 1.926 9.06 5.023 12.21 v 0.891 c 0 2.033 -1.451 3.773 -3.45 4.138 l -3.636 0.664 V 18.513 z M 24.032 40.841 c 1.841 1.294 3.96 2.079 6.259 2.079 s 4.418 -0.785 6.259 -2.079 c 0.283 2.266 1.786 4.187 3.896 5.008 c -2.17 5.836 -5.57 10.631 -10.155 14.25 c -4.586 -3.618 -7.985 -8.414 -10.154 -14.25 C 22.247 45.027 23.749 43.107 24.032 40.841 z M 19.069 26.969 v -7.442 c 6.262 -0.101 10.804 -0.967 14.901 -2.84 c 2.353 1.797 4.628 2.65 7.544 2.819 v 7.464 c 0 6.451 -4.902 13.95 -11.223 13.95 c -2.412 0 -4.614 -1.097 -6.42 -2.806 c -0.051 -0.066 -0.106 -0.123 -0.171 -0.174 C 20.876 35.162 19.069 30.878 19.069 26.969 z M 52.965 69.369 H 7.618 V 53.331 c 0 -2.94 2.1 -5.458 4.992 -5.987 l 5.571 -1.018 c 2.391 6.553 6.25 11.885 11.51 15.834 c 0.178 0.134 0.389 0.2 0.6 0.2 s 0.422 -0.066 0.601 -0.2 c 5.259 -3.948 9.117 -9.281 11.509 -15.834 l 5.572 1.018 c 2.893 0.529 4.992 3.047 4.992 5.987 V 69.369 z" style="stroke: none; stroke-width: 1; stroke-dasharray: none; stroke-linecap: butt; stroke-linejoin: miter; stroke-miterlimit: 10; fill: rgb(7,42,56); fill-rule: nonzero; opacity: 1;" transform=" matrix(1 0 0 1 0 0) " stroke-linecap="round" />
</g>
</svg>