<!DOCTYPE svg PUBLIC "-//W3C//DTD SVG 1.1//EN" "http://www.w3.org/Graphics/SVG/1.1/DTD/svg11.dtd">
<!-- Uploaded to: SVG Repo, www.svgrepo.com, Transformed by: SVG Repo Mixer Tools -->
<svg width="256px" height="256px" viewBox="0 0 64 64" version="1.1" xml:space="preserve" xmlns="http://www.w3.org/2000/svg" xmlns:xlink="http://www.w3.org/1999/xlink" fill="#000000">
<g id="SVGRepo_bgCarrier" stroke-width="0"/>
<g id="SVGRepo_tracerCarrier" stroke-linecap="round" stroke-linejoin="round"/>
<g id="SVGRepo_iconCarrier"> <style type="text/css"> .st0{fill:#FFEEA9;} .st1{fill:#237dd1;} .st2{fill:#8DD1D3;} .st3{fill:#ffffff;} .st4{fill:none;stroke:#ffffff;stroke-linecap:round;stroke-linejoin:round;stroke-miterlimit:10;} </style> <g id="_x34_0-Id_Card"/> <g id="_x33_9-Formula"/> <g id="_x33_8-Elbow"/> <g id="_x33_7-Diploma"/> <g id="_x33_6-Laptop"> <g> <g> <path class="st1" d="M58.1,41H5.9c-0.6,0-1-0.4-1-1V8.2c0-0.6,0.4-1,1-1h52.2c0.6,0,1,0.4,1,1V40C59.1,40.6,58.6,41,58.1,41z"/> </g> <g> <path class="st0" d="M60.6,56.8H3.4c-1.5,0-2.6-1.4-2.2-2.9l3.2-11.3c0.3-1,1.2-1.6,2.2-1.6h50.8c1,0,1.9,0.7,2.2,1.6L62.8,54 C63.2,55.4,62.1,56.8,60.6,56.8z"/> </g> <g> <g> <path class="st3" d="M63.9,53.6l-3.2-11.3c-0.2-0.7-0.6-1.2-1.1-1.6c0.4-0.6,0.6-1.2,0.6-2V9.4c0-1.9-1.5-3.4-3.4-3.4H7.2 C5.3,6,3.8,7.6,3.8,9.4v29.3c0,0.7,0.2,1.4,0.6,2c-0.5,0.4-0.9,1-1.1,1.6L0.1,53.6c-0.3,1-0.1,2.1,0.6,3C1.3,57.5,2.3,58,3.4,58 h57.2c1.1,0,2.1-0.5,2.7-1.3C64,55.8,64.2,54.7,63.9,53.6z M6,9.4c0-0.6,0.5-1.1,1.1-1.1h49.7c0.6,0,1.1,0.5,1.1,1.1v29.3 c0,0.6-0.5,1.1-1.1,1.1H7.2c-0.6,0-1.1-0.5-1.1-1.1V9.4z M61.5,55.3c-0.2,0.3-0.5,0.4-0.9,0.4H3.4c-0.4,0-0.7-0.2-0.9-0.4 c-0.2-0.3-0.3-0.6-0.2-1L5.5,43c0.1-0.5,0.6-0.8,1.1-0.8h0.6h49.7h0.6c0.5,0,0.9,0.3,1.1,0.8l3.2,11.3 C61.8,54.6,61.7,55,61.5,55.3z"/> </g> <g> <path class="st3" d="M29.7,12.8h4.5c0.6,0,1.1-0.5,1.1-1.1c0-0.6-0.5-1.1-1.1-1.1h-4.5c-0.6,0-1.1,0.5-1.1,1.1 C28.6,12.3,29.1,12.8,29.7,12.8z"/> </g> <g> <path class="st3" d="M53.4,44.4H10.6c-0.6,0-1.1,0.5-1.1,1.1s0.5,1.1,1.1,1.1h42.9c0.6,0,1.1-0.5,1.1-1.1S54.1,44.4,53.4,44.4z"/> </g> <g> <path class="st3" d="M42.2,51.2H21.8c-0.6,0-1.1,0.5-1.1,1.1s0.5,1.1,1.1,1.1h20.3c0.6,0,1.1-0.5,1.1-1.1S42.8,51.2,42.2,51.2z"/> </g> </g> </g> </g> <g id="_x33_5-Brush"/> <g id="_x33_4-Baseball"/> <g id="_x33_3-Student"/> <g id="_x33_2-Highlighter"/> <g id="_x33_1-Ruler"/> <g id="_x33_0-Caliper"/> <g id="_x32_9-Ruler_Elbow"/> <g id="_x32_8-Abacus"/> <g id="_x32_7-Id_Card"/> <g id="_x32_6-Eraser"/> <g id="_x32_5-Pencil"/> <g id="_x32_4-Ink"/> <g id="_x32_3-Graduation_Cap"/> <g id="_x32_2-_Sling_Bag"/> <g id="_x32_1-Rugby_Ball"/> <g id="_x32_0-Clock"/> <g id="_x31_9-Certificate"/> <g id="_x31_8-Idea"/> <g id="_x31_7-Bookshelf"/> <g id="_x31_6-Formula"/> <g id="_x31_5-Bell"/> <g id="_x31_4-Magnifying_Glass"/> <g id="_x31_3-Calculator"/> <g id="_x31_2-Eyeglasses"/> <g id="_x31_1-Bus"/> <g id="_x31_0-Trophy"/> <g id="_x39_-Globe"/> <g id="_x38_-Basket_Ball"/> <g id="_x37_-Pen"/> <g id="_x36_-Board"/> <g id="_x35_-Bag"/> <g id="_x34_-Exam"/> <g id="_x33_-Book"/> <g id="_x32_-Ruler"/> <g id="_x31_-Building"/> </g>
</svg>