<!DOCTYPE svg PUBLIC "-//W3C//DTD SVG 1.1//EN" "http://www.w3.org/Graphics/SVG/1.1/DTD/svg11.dtd">
<!-- Uploaded to: SVG Repo, www.svgrepo.com, Transformed by: SVG Repo Mixer Tools -->
<svg width="256px" height="256px" viewBox="0 0 1024 1024" class="icon" version="1.1" xmlns="http://www.w3.org/2000/svg" fill="#000000">
<g id="SVGRepo_bgCarrier" stroke-width="0"/>
<g id="SVGRepo_tracerCarrier" stroke-linecap="round" stroke-linejoin="round"/>
<g id="SVGRepo_iconCarrier">
<path d="M373.1 670.6L188.8 178.5c-7.8-20.7 2.7-43.7 23.4-51.5 20.7-7.8 43.7 2.7 51.5 23.4l172.4 460.2 351.3-71c21.7-4.4 42.8 9.6 47.1 31.3 4.4 21.7-9.6 42.8-31.3 47.1l-384.7 77.8c-19.2 3.9-38.5-6.8-45.4-25.2z" fill="#FF4C22"/>
<path d="M336.5 729.6L105 124c-3.9-10.3 1.2-21.9 11.5-25.8 10.3-3.9 21.9 1.2 25.8 11.5l231.6 605.6c3.9 10.3-1.2 21.9-11.5 25.8-10.3 4-21.9-1.2-25.9-11.5z" fill="#93643D"/>
<path d="M201.8 793.5l16.5-43.9 658.4-127c10.8-2.1 21.3 5 23.4 15.8 2.1 10.8-5 21.3-15.8 23.4L201.8 793.5z" fill="#93643D"/>
<path d="M128 927.8c-9.7-6.3-13.4-21.1-8.2-32.9L282 480.3l422.1-9.3c7.3 0 14 4.8 17.5 12.6L904 886.7c5.3 11.7 1.8 26.5-7.9 33-9.7 6.5-21.8 2.2-27.2-9.6L692.3 519.5l-390.5 7.2-146.7 391.2c-5.2 11.8-17.3 16.2-27.1 9.9z" fill="#93643D"/>
</g>
</svg>