<?xml version="1.0" encoding="utf-8"?>
<!-- Uploaded to: SVG Repo, www.svgrepo.com, Generator: SVG Repo Mixer Tools -->
<svg width="800px" height="800px" viewBox="0 0 1024 1024" class="icon"  version="1.1" xmlns="http://www.w3.org/2000/svg"><path d="M891.985346 118.062169H132.453901c-21.242549 0 7.385285 95.748636 7.385285 95.748636l81.566801 673.649991c1.372006 11.37127 9.543635 22.025821 20.586238 24.967444 4.380181 1.174396 537.768122 0.324572 542.279361-0.849825 11.176732-2.941623 19.411842-12.746348 20.783848-24.184171l79.60606-673.583439c0.002048 0.001024 28.629881-95.748636 7.323852-95.748636z" fill="#27323A" /><path d="M484.995025 613.806966v150.780424h-96.729519l-10.129297-150.780424zM332.384917 764.58739h-67.254932l-18.625498-150.780424h75.751132zM318.527653 558.053338h-78.886269l-19.345289-157.25138h87.64356zM484.995025 400.801958v157.25138H374.412338l-10.524517-157.25138zM659.701601 400.801958L649.177084 558.053338H540.748652V400.801958zM645.453213 613.806966l-10.133393 150.780424h-94.571168V613.806966zM691.204505 764.58739l10.129298-150.780424h79.476026L762.705489 764.58739zM705.057674 558.053338l10.587998-157.25138h90.783816l-18.887613 157.25138z" fill="#F4CE73" /><path d="M882.18062 244.530437H142.355896c-36.960212 0-66.927288-29.967076-66.927288-66.927289s29.966052-66.927288 66.927288-66.927288h739.824724c36.960212 0 66.927288 29.966052 66.927288 66.927288-0.001024 36.961236-29.967076 66.927288-66.927288 66.927289z" fill="#27323A" /><path d="M142.355896 194.335482c-9.215992 0-16.73131-7.516342-16.73131-16.73131s7.516342-16.73131 16.73131-16.73131h739.824724c9.215992 0 16.73131 7.516342 16.73131 16.73131s-7.516342 16.73131-16.73131 16.73131H142.355896z" fill="#79CCBF" /><path d="M484.995025 227.799126v117.252276H360.096373l-7.873678-117.252276zM663.489977 345.051402H540.748652V227.799126h131.565169zM296.341082 227.799126l7.874702 117.252276H213.431968l-14.475691-117.252276zM813.161534 345.051402h-93.787896l7.873678-117.252276h100.032573z" fill="#FFFFFF" /></svg>