<?xml version="1.0" encoding="utf-8"?>
<!-- Svg Vector Icons : http://www.onlinewebfonts.com/icon -->
<!DOCTYPE svg PUBLIC "-//W3C//DTD SVG 1.1//EN" "http://www.w3.org/Graphics/SVG/1.1/DTD/svg11.dtd">
<svg version="1.1" xmlns="http://www.w3.org/2000/svg" xmlns:xlink="http://www.w3.org/1999/xlink" x="0px" y="0px" viewBox="0 0 256 256" enable-background="new 0 0 256 256" xml:space="preserve">
<metadata> Svg Vector Icons : http://www.onlinewebfonts.com/icon </metadata>
<g><g><g><path fill="#000000" d="M165.8,34.2C114.2,59.6,87.9,89.5,97,113c2.7,8.2,19.9,23.6,38,34.4c31.7,18.1,32.6,19.9,15.4,31.7C130.5,193.7,51.7,219,26.3,219c-9.1,0-16.3,6.3-16.3,13.6c0,16.3,18.1,17.2,77,0.9c110.5-29,135.9-67.9,67.9-106c-19.9-11.8-36.2-23.6-36.2-28.1c0-10.9,53.5-41.7,93.3-54.4c33.5-10,47.1-34.4,18.1-34.4C221.1,11.6,192.1,21.5,165.8,34.2z"/></g></g></g>
</svg>