<?xml version="1.0" encoding="iso-8859-1"?>
<!-- Uploaded to: SVG Repo, www.svgrepo.com, Generator: SVG Repo Mixer Tools -->
<svg height="800px" width="800px" version="1.1" id="Layer_1" xmlns="http://www.w3.org/2000/svg" xmlns:xlink="http://www.w3.org/1999/xlink" 
	 viewBox="0 0 512 512" xml:space="preserve">
<g transform="translate(1)">
	<polygon style="fill:#556080;" points="109.933,307.2 297.667,307.2 297.667,119.467 109.933,119.467 	"/>
	<g>
		<path style="fill:#7383BF;" d="M468.333,486.4h-409.6v-25.6h-25.6V51.2h25.6V25.6h409.6v25.6h25.6v409.6h-25.6V486.4z
			 M75.8,469.333h375.467v-25.6h25.6V68.267h-25.6v-25.6H75.8v25.6H50.2v375.467h25.6V469.333z"/>
		<polygon style="fill:#7383BF;" points="297.667,213.333 297.667,307.2 203.8,307.2 203.8,401.067 391.533,401.067 
			391.533,213.333 		"/>
	</g>
	<g>
		<polygon style="fill:#556080;" points="7.533,59.733 58.733,59.733 58.733,8.533 7.533,8.533 		"/>
		<path style="fill:#556080;" d="M67.267,68.267H-1V0h68.267V68.267z M16.067,51.2H50.2V17.067H16.067V51.2z"/>
		<polygon style="fill:#556080;" points="451.267,59.733 502.467,59.733 502.467,8.533 451.267,8.533 		"/>
		<path style="fill:#556080;" d="M511,68.267h-68.267V0H511V68.267z M459.8,51.2h34.133V17.067H459.8V51.2z"/>
		<polygon style="fill:#556080;" points="7.533,503.467 58.733,503.467 58.733,452.267 7.533,452.267 		"/>
		<path style="fill:#556080;" d="M67.267,512H-1v-68.267h68.267V512z M16.067,494.933H50.2V460.8H16.067V494.933z"/>
		<polygon style="fill:#556080;" points="451.267,503.467 502.467,503.467 502.467,452.267 451.267,452.267 		"/>
		<path style="fill:#556080;" d="M511,512h-68.267v-68.267H511V512z M459.8,494.933h34.133V460.8H459.8V494.933z"/>
	</g>
	<path d="M67.267,68.267H-1V0h68.267V68.267z M16.067,51.2H50.2V17.067H16.067V51.2z"/>
	<path d="M511,68.267h-68.267V0H511V68.267z M459.8,51.2h34.133V17.067H459.8V51.2z"/>
	<path d="M67.267,512H-1v-68.267h68.267V512z M16.067,494.933H50.2V460.8H16.067V494.933z"/>
	<path d="M511,512h-68.267v-68.267H511V512z M459.8,494.933h34.133V460.8H459.8V494.933z"/>
	<path d="M459.8,486.4H50.2v-25.6H24.6V51.2h25.6V25.6h409.6v25.6h25.6v409.6h-25.6V486.4z M67.267,469.333h375.467v-25.6h25.6
		V68.267h-25.6v-25.6H67.267v25.6h-25.6v375.467h25.6V469.333z"/>
	<path d="M306.2,315.733H101.4v-204.8h204.8V315.733z M118.467,298.667h170.667V128H118.467V298.667z"/>
	<path d="M400.067,409.6h-204.8V298.667h93.867V204.8h110.933V409.6z M212.333,392.533H383V221.867h-76.8v93.867h-93.867V392.533z"
		/>
</g>
</svg>