<?xml version="1.0" ?>
<!-- Uploaded to: SVG Repo, www.svgrepo.com, Generator: SVG Repo Mixer Tools -->
<svg width="800px" height="800px" viewBox="0 -27 117 117" version="1.1" xmlns="http://www.w3.org/2000/svg" xmlns:xlink="http://www.w3.org/1999/xlink">
<title/>
<desc/>
<defs/>
<g fill="none" fill-rule="evenodd" id="Page-1" stroke="none" stroke-width="1">
<g fill-rule="nonzero" id="visible">
<path d="M58.7,0.3 C30.3,0.3 2.8,27.4 1.7,28.6 C0.9,29.4 0.5,30.4 0.5,31.5 C0.5,32.6 0.9,33.6 1.7,34.4 C2.9,35.6 30.3,62.7 58.7,62.7 C87.1,62.7 114.6,35.6 115.7,34.4 C116.5,33.6 116.9,32.6 116.9,31.5 C116.9,30.4 116.5,29.4 115.7,28.6 C114.6,27.4 87.2,0.3 58.7,0.3 Z M58.7,54.4 C38.8,54.4 18.3,38.2 10.6,31.4 C18.3,24.6 38.8,8.4 58.7,8.4 C78.6,8.4 99.1,24.6 106.8,31.4 C99.1,38.2 78.6,54.4 58.7,54.4 Z" fill="#4A4A4A" id="Shape"/>
<path d="M44,31.4 C44,39.5 50.6,46.2 58.8,46.2 C67,46.2 73.6,39.6 73.6,31.4 C73.6,23.2 67,16.6 58.8,16.6 C50.6,16.6 44,23.3 44,31.4 Z M65.3,31.4 C65.3,35 62.4,38 58.7,38 C55.1,38 52.1,35.1 52.1,31.4 C52.1,27.7 55,24.8 58.7,24.8 C62.3,24.9 65.3,27.8 65.3,31.4 Z" fill="#17AB13" id="Shape"/>
</g>
</g>
</svg>