<svg xmlns="http://www.w3.org/2000/svg" width="202" height="250" viewBox="0 0 202 250" fill="none">
<path d="M18.4151 32.85C26.2451 32.85 30.6551 29.025 33.3101 24.345L24.6251 19.44C23.3201 21.78 21.6551 23.4 18.6851 23.4C15.2201 23.4 12.7901 20.52 12.7901 16.425V16.335C12.7901 12.555 15.1301 9.45 18.6851 9.45C21.5651 9.45 23.2301 11.025 24.4001 13.275L33.0851 8.19C30.4301 3.375 25.7501 0 18.8201 0C9.41508 0 2.08008 7.02 2.08008 16.425V16.515C2.08008 26.28 9.68508 32.85 18.4151 32.85ZM32.4973 32.175H43.7473L45.3673 27.945H56.3923L58.0573 32.175H69.4873L56.2123 0.450002H45.7723L32.4973 32.175ZM48.0223 20.475L50.9023 12.825L53.7823 20.475H48.0223ZM70.7835 32.175H81.2235V17.64L92.9235 32.175H102.283V0.675002H91.8435V14.58L80.6385 0.675002H70.7835V32.175ZM116.381 32.4H126.461L139.241 0.675002H127.631L121.511 18.36L115.391 0.675002H103.601L116.381 32.4ZM133.747 32.175H144.997L146.617 27.945H157.642L159.307 32.175H170.737L157.462 0.450002H147.022L133.747 32.175ZM149.272 20.475L152.152 12.825L155.032 20.475H149.272ZM185.139 32.76C193.599 32.76 199.044 28.71 199.044 22.095V22.005C199.044 15.66 193.644 13.32 185.589 11.835C182.259 11.205 181.404 10.665 181.404 9.81V9.72C181.404 8.955 182.124 8.415 183.699 8.415C186.624 8.415 190.179 9.36 193.149 11.52L198.279 4.41C194.634 1.53 190.134 0.089999 184.059 0.089999C175.374 0.089999 170.694 4.725 170.694 10.71V10.8C170.694 17.46 176.904 19.485 183.969 20.925C187.344 21.6 188.334 22.095 188.334 22.995V23.085C188.334 23.94 187.524 24.435 185.634 24.435C181.944 24.435 178.029 23.355 174.609 20.745L168.984 27.45C172.989 30.96 178.749 32.76 185.139 32.76Z" fill="#4C566A"/><path d="M28.5386 229.98L12.4254 49.1211H189.574L173.461 229.883L100.853 250" fill="#434C5E"/><path d="M101 234.619V63.9648H173.412L159.594 218.262" fill="#4C566A"/><path d="M55.5 198.5L45 86H101V108H69L76 182L101 188.5V212L55.5 198.5Z" fill="#ECEFF4"/><path d="M156.5 86H101V108H132L130 131H152L156.5 86Z" fill="white"/><path d="M101 212L144 200L148 166H127.5L126 181L101 188.5V212Z" fill="white"/>
</svg>