<?xml version="1.0" encoding="iso-8859-1"?>
<!-- Uploaded to: SVG Repo, www.svgrepo.com, Generator: SVG Repo Mixer Tools -->
<svg height="800px" width="800px" version="1.1" id="Layer_1" xmlns="http://www.w3.org/2000/svg" xmlns:xlink="http://www.w3.org/1999/xlink" 
	 viewBox="0 0 512.001 512.001" xml:space="preserve">
<path style="fill:#5C6670;" d="M295.158,83.644H201.74c-9.64,0-18.194,6.178-21.226,15.328l-13.563,40.943h162.997l-13.563-40.943
	C313.353,89.823,304.797,83.644,295.158,83.644z"/>
<path style="opacity:0.15;enable-background:new    ;" d="M325.984,127.95H201.928c-4.212,0-7.188-4.122-5.864-8.12l10.873-32.823
	c0.389-1.173,0.87-2.295,1.431-3.363h-6.629c-9.64,0-18.194,6.178-21.226,15.328l-13.563,40.943h162.997L325.984,127.95z"/>
<path style="fill:#333E48;" d="M485.316,428.355H26.684c-10.195,0-18.461-8.265-18.461-18.461V158.378
	c0-10.195,8.265-18.461,18.461-18.461h458.634c10.195,0,18.461,8.265,18.461,18.461v251.516
	C503.778,420.09,495.513,428.355,485.316,428.355z"/>
<path style="opacity:0.15;enable-background:new    ;" d="M46.652,404.742c-10.195,0-18.461-8.265-18.461-18.461V139.916h-1.507
	c-10.195,0-18.461,8.265-18.461,18.461v251.517c0,10.195,8.265,18.461,18.461,18.461h458.634c10.195,0,18.461-8.265,18.461-18.461
	v-5.151H46.652V404.742z"/>
<circle style="opacity:0.15;enable-background:new    ;" cx="242.85" cy="294.013" r="99.378"/>
<path style="fill:#7D868C;" d="M503.778,223.057H470.77c-12.493,0-22.621,10.128-22.621,22.621v71.073
	c0,12.493,10.128,22.621,22.621,22.621h33.008V223.057z"/>
<path style="fill:#FFB547;" d="M125.451,206.976H68.045c-4.129,0-7.474-3.347-7.474-7.474v-17.939c0-4.129,3.347-7.474,7.474-7.474
	h57.405c4.129,0,7.474,3.347,7.474,7.474v17.939C132.926,203.63,129.579,206.976,125.451,206.976z"/>
<path style="fill:#FFFFFF;" d="M111,242.606H70.438c-4.542,0-8.222-3.681-8.222-8.222c0-4.541,3.68-8.222,8.222-8.222H111
	c4.542,0,8.222,3.681,8.222,8.222C119.222,238.924,115.542,242.606,111,242.606z"/>
<path style="fill:#C3C6C8;" d="M433.319,107.214h-40.343c-8.189,0-14.829,6.639-14.829,14.828v17.873h70.001v-17.873
	C448.149,113.853,441.51,107.214,433.319,107.214z"/>
<path style="opacity:0.15;enable-background:new    ;" d="M391.631,133.706c-2.3,0-4.165-1.865-4.165-4.165v-13.708
	c0-3.085,0.944-5.95,2.557-8.323c-6.774,1.369-11.875,7.355-11.875,14.533v17.873h70.001v-6.21H391.631z"/>
<path style="fill:#FFFFFF;" d="M271.98,120.002h-47.061c-4.542,0-8.222-3.681-8.222-8.222s3.68-8.222,8.222-8.222h47.061
	c4.542,0,8.222,3.681,8.222,8.222C280.202,116.321,276.521,120.002,271.98,120.002z"/>
<circle style="fill:#7D868C;" cx="256.005" cy="284.135" r="99.378"/>
<circle style="fill:#333E48;" cx="256.005" cy="284.135" r="58.749"/>
<circle style="fill:#FFFFFF;" cx="275.968" cy="272.547" r="19.97"/>
<path style="fill:#1E252B;" d="M485.316,131.694h-28.945v-9.651c0-12.71-10.341-23.051-23.052-23.051h-40.343
	c-12.71,0-23.051,10.341-23.051,23.051v9.651h-34.04L324.19,96.388c-4.154-12.54-15.82-20.965-29.031-20.965h-93.418
	c-13.21,0-24.876,8.425-29.032,20.965l-11.696,35.307H26.684C11.97,131.695,0,143.666,0,158.379v251.516
	c0,14.713,11.97,26.684,26.684,26.684h458.634c14.713,0,26.684-11.97,26.684-26.684V158.378
	C512,143.665,500.03,131.694,485.316,131.694z M386.37,122.044c0-3.643,2.963-6.606,6.606-6.606h40.343
	c3.643,0,6.607,2.964,6.607,6.606v9.651h-53.558v-9.651H386.37z M188.318,101.559c1.921-5.797,7.316-9.692,13.422-9.692h93.418
	c6.106,0,11.5,3.895,13.421,9.692l9.984,30.135H178.335L188.318,101.559z M495.556,331.149H470.77
	c-7.939,0-14.399-6.459-14.399-14.399v-71.073c0-7.939,6.459-14.399,14.399-14.399h24.786V331.149z M495.556,214.834H470.77
	c-17.007,0-30.843,13.836-30.843,30.843v71.073c0,17.007,13.836,30.843,30.843,30.843h24.786v62.3
	c0,5.646-4.592,10.239-10.239,10.239H26.684c-5.646,0-10.239-4.593-10.239-10.239V158.378c0-5.646,4.592-10.239,10.239-10.239
	h458.634c5.646,0,10.239,4.593,10.239,10.239v56.457H495.556z M256.001,217.165c-36.928,0-66.971,30.043-66.971,66.971
	c0,36.927,30.043,66.97,66.971,66.97s66.971-30.043,66.971-66.97C322.971,247.208,292.928,217.165,256.001,217.165z
	 M256.001,334.662c-27.86,0-50.527-22.666-50.527-50.526s22.667-50.527,50.527-50.527c27.86,0,50.527,22.666,50.527,50.527
	C306.526,311.996,283.86,334.662,256.001,334.662z M256.001,176.531c-59.333,0-107.604,48.271-107.604,107.604
	s48.271,107.604,107.604,107.604s107.604-48.271,107.604-107.604C363.604,224.803,315.334,176.531,256.001,176.531z
	 M256.001,375.295c-50.266,0-91.16-40.894-91.16-91.16c0-50.266,40.895-91.16,91.16-91.16s91.16,40.894,91.16,91.16
	C347.16,334.401,306.265,375.295,256.001,375.295z"/>
</svg>